<?xml version="1.0" encoding="utf-8"?>
<!-- Generator: Adobe Illustrator 24.1.0, SVG Export Plug-In . SVG Version: 6.00 Build 0)  -->
<svg version="1.1" id="Слой_1" xmlns="http://www.w3.org/2000/svg" xmlns:xlink="http://www.w3.org/1999/xlink" x="0px" y="0px"
	 viewBox="0 0 500 500" style="enable-background:new 0 0 500 500;" xml:space="preserve">
<style type="text/css">
	.st0{fill:#FFFFFF;}
	.st1{fill:none;stroke:#FFFFFF;stroke-width:20;stroke-miterlimit:10;}
	.st2{fill:#FFFFFF;stroke:#FFFFFF;stroke-width:20;stroke-miterlimit:10;}
</style>
<g>
	<path class="st0" d="M250,111.9c30.9,0,61.6,4.7,91.3,14.1c26.7,8.4,52.4,20.7,74.3,35.4c39.1,26.4,64.4,59.8,64.4,85.1
		s-25.3,58.6-64.4,85.1c-21.9,14.8-47.6,27-74.3,35.4c-29.7,9.4-60.4,14.1-91.3,14.1c-30.9,0-61.7-4.7-91.4-13.9
		c-26.8-8.3-52.5-20.5-74.3-35.1c-20.3-13.6-37.1-29.2-48.5-45.1C25.5,272.4,20,258.4,20,246.5c0-12,5.5-26,15.9-40.4
		c11.4-15.9,28.2-31.5,48.5-45.1c21.8-14.6,47.5-26.8,74.3-35.1C188.3,116.6,219.1,111.9,250,111.9 M250,91.9
		C111.9,91.9,0,180.3,0,246.5S111.9,401,250,401s250-89.7,250-154.6S388.1,91.9,250,91.9L250,91.9z"/>
</g>
<ellipse class="st1" cx="250" cy="246.5" rx="131.4" ry="129"/>
<ellipse class="st2" cx="250" cy="246.5" rx="40.6" ry="39.8"/>
</svg>
