<svg xmlns="http://www.w3.org/2000/svg" style="display: none;">

    <symbol id="sprite_set_icon" viewBox="0 0 100 100">
         <path d="M80.13,40.12c-0.36-1.01-0.77-2.01-1.24-2.99c-0.5-1.05-0.41-2.28,0.22-3.26l2.61-4.04
            c0.86-1.34,0.68-3.1-0.45-4.23c-1.93-1.93-4.2-4.21-6.04-6.04c-1.13-1.13-2.88-1.31-4.22-0.45l-4.02,2.6
            c-0.98,0.63-2.21,0.72-3.26,0.22c-0.99-0.47-1.99-0.88-3.02-1.24c-1.1-0.39-1.91-1.32-2.16-2.46l-1.01-4.68
            c-0.34-1.56-1.71-2.67-3.3-2.67c-2.59,0-5.99-0.03-8.54-0.04c-1.6,0-2.97,1.11-3.31,2.67l-1.01,4.7c-0.24,1.14-1.06,2.07-2.15,2.46
            c-1.02,0.36-2.02,0.78-3,1.24c-1.05,0.5-2.28,0.41-3.26-0.22l-4.1-2.65c-1.34-0.86-3.1-0.68-4.22,0.44
            c-1.82,1.82-4.17,4.35-5.95,6.16c-1.11,1.13-1.29,2.87-0.43,4.21l2.56,3.97c0.63,0.97,0.72,2.21,0.22,3.25
            c-0.47,0.99-0.88,2-1.24,3.02c-0.39,1.1-1.32,1.92-2.46,2.16l-4.7,1.01c-1.56,0.34-2.67,1.71-2.67,3.3c0,2.56,0,6,0,8.54
            c0,1.59,1.11,2.97,2.67,3.31l4.72,1.02c1.15,0.25,2.08,1.07,2.47,2.18c0.36,1.01,0.76,1.99,1.2,2.93c0.49,1.06,0.42,2.29-0.21,3.28
            l-2.6,4.03c-0.86,1.34-0.68,3.1,0.45,4.23l6.04,6.04c1.13,1.13,2.89,1.31,4.23,0.45l4.02-2.59c0.98-0.63,2.21-0.72,3.26-0.22
            c0.99,0.47,1.99,0.88,3.02,1.25c1.1,0.39,1.91,1.32,2.15,2.46l1.02,4.72c0.34,1.56,1.71,2.67,3.3,2.67c2.56,0,6,0,8.54,0
            c1.59,0,2.97-1.11,3.3-2.67l1.02-4.73c0.24-1.14,1.05-2.07,2.15-2.46c1.02-0.36,2.02-0.77,2.99-1.23c1.05-0.49,2.27-0.4,3.25,0.23
            l3.94,2.54c1.34,0.87,3.1,0.68,4.23-0.45c1.8-1.8,4.32-4.14,6.13-5.92c1.15-1.12,1.34-2.9,0.47-4.25l-2.62-4.06
            c-0.63-0.98-0.72-2.21-0.22-3.26c0.47-0.98,0.88-1.99,1.24-3.01c0.39-1.1,1.32-1.91,2.46-2.15l4.61-0.99
            c1.57-0.34,2.68-1.73,2.67-3.34c-0.01-2.63,0.14-5.93,0.17-8.49c0.02-1.6-1.1-2.99-2.67-3.33l-4.76-1.03
            C81.45,42.02,80.52,41.21,80.13,40.12z"/>
    </symbol>

    <symbol id="sprite_btn_change"  viewBox="0 0 100 100">
        <path d="M85,78.1L64.8,57.9c3.3-4.6,5.2-10.3,5.2-16.4C70,25.8,57.2,13,41.5,13S13,25.8,13,41.5S25.8,70,41.5,70
            c6.1,0,11.7-1.9,16.3-5.2L78,85C80,87,83,87,85,85h0C86.9,83.1,86.9,80,85,78.1z M22,42c0-11,9-20,20-20s20,9,20,20c0,11-9,20-20,20
            S22,53,22,42z"/>
    </symbol>

    <symbol id="sprite_btn_remove" viewBox="0 0 500 500">
        <path d="M460.2,24.7h-39.8H79.6H39.8C17.8,24.7,0,42.5,0,64.4v7.8c0,22,17.8,39.8,39.8,39.8h0c22,0,39.8,17.8,39.8,39.8v283.8
            c0,22,17.8,39.8,39.8,39.8h261.3c22,0,39.8-17.8,39.8-39.8V151.8c0-22,17.8-39.8,39.8-39.8h0c22,0,39.8-17.8,39.8-39.8v-7.8
            C500,42.5,482.2,24.7,460.2,24.7z M181.9,408.6c0,13.6-11,24.6-24.6,24.6h0c-13.6,0-24.6-11-24.6-24.6V169c0-13.6,11-24.6,24.6-24.6
            h0c13.6,0,24.6,11,24.6,24.6V408.6z M274.6,408.6c0,13.6-11,24.6-24.6,24.6s-24.6-11-24.6-24.6V169c0-13.6,11-24.6,24.6-24.6
            s24.6,11,24.6,24.6V408.6z M367.3,408.6c0,13.6-11,24.6-24.6,24.6h0c-13.6,0-24.6-11-24.6-24.6V169c0-13.6,11-24.6,24.6-24.6h0
            c13.6,0,24.6,11,24.6,24.6V408.6z"/>
    </symbol>

    <symbol id="sprite_btn_erase" viewBox="0 0 500 500">
        <path d="M442.1,57.9H182.3c-16.1,0-31.5,6.7-42.5,18.5L15.4,210.6c-20.6,22.2-20.6,56.5,0,78.7l124.4,134.2
            c11,11.8,26.3,18.5,42.5,18.5h259.8c32,0,57.9-25.9,57.9-57.9V115.8C500,83.8,474.1,57.9,442.1,57.9z M376.4,266.5l51.7,51.7
            c15.4,15.4,15.4,40.4,0,55.8l0,0c-15.4,15.4-40.4,15.4-55.8,0l-51.7-51.7c-9.1-9.1-23.8-9.1-32.9,0l-51.7,51.7
            c-15.4,15.4-40.4,15.4-55.8,0l0,0c-15.4-15.4-15.4-40.4,0-55.8l51.7-51.7c9.1-9.1,9.1-23.8,0-32.9l-51.7-51.7
            c-15.4-15.4-15.4-40.4,0-55.8l0,0c15.4-15.4,40.4-15.4,55.8,0l51.7,51.7c9.1,9.1,23.8,9.1,32.9,0l51.7-51.7
            c15.4-15.4,40.4-15.4,55.8,0l0,0c15.4,15.4,15.4,40.4,0,55.8l-51.7,51.7C367.3,242.6,367.3,257.4,376.4,266.5z"/>
    </symbol>

    <symbol id="sprite_btn_show" viewBox="0 0 500 500">
        <path d="M250,391c-61.6,0-122.4-18-171.2-50.8C36.4,311.8,10,275.8,10,246.5s26.4-65.3,68.8-93.8c48.8-32.7,109.6-50.8,171.2-50.8
            c61.4,0,122.2,18.2,171.2,51.2c42.4,28.6,68.8,64.4,68.8,93.3s-26.4,64.7-68.8,93.3C372.2,372.8,311.4,391,250,391z M250,122.5
            c-70.3,0-127.5,55.6-127.5,124c0,68.4,57.2,124,127.5,124c70.3,0,127.5-55.6,127.5-124C377.5,178.1,320.3,122.5,250,122.5z"/>
        <path d="M250,111.9c30.9,0,61.6,4.7,91.3,14.1c26.7,8.4,52.4,20.7,74.3,35.4c39.1,26.4,64.4,59.8,64.4,85.1s-25.3,58.6-64.4,85.1
            c-21.9,14.8-47.6,27-74.3,35.4c-29.7,9.4-60.4,14.1-91.3,14.1c-30.9,0-61.7-4.7-91.4-13.9c-26.8-8.3-52.5-20.5-74.3-35.1
            c-20.3-13.6-37.1-29.2-48.5-45.1C25.5,272.4,20,258.4,20,246.5c0-12,5.5-26,15.9-40.4c11.4-15.9,28.2-31.5,48.5-45.1
            c21.8-14.6,47.5-26.8,74.3-35.1C188.3,116.6,219.1,111.9,250,111.9 M250,380.4c75.8,0,137.5-60.1,137.5-134
            c0-73.9-61.7-134-137.5-134s-137.5,60.1-137.5,134C112.5,320.3,174.2,380.4,250,380.4 M250,91.9C111.9,91.9,0,180.3,0,246.5
            S111.9,401,250,401s250-89.7,250-154.6S388.1,91.9,250,91.9L250,91.9z M250,360.4c-64.9,0-117.5-51-117.5-114
            c0-63,52.6-114,117.5-114s117.5,51,117.5,114C367.5,309.4,314.9,360.4,250,360.4L250,360.4z"/>
    </symbol>

    <symbol id="sprite_float_edit" viewBox="0 0 500 500">
        <path d="M360.5,347.3c0,7.3-5.9,13.2-13.2,13.2H152.7c-7.3,0-13.2-5.9-13.2-13.2V152.7c0-7.3,5.9-13.2,13.2-13.2h141.4L337,96.5
		    H126.6c-16.6,0-30.1,13.5-30.1,30.1v246.8c0,16.6,13.5,30.1,30.1,30.1h246.8c16.6,0,30.1-13.5,30.1-30.1V163.2l-42.9,42.9V347.3z"/>
        <path d="M385.6,86.8c-5.9-5.9-15.5-5.9-21.5,0L199.3,251.6c-5.9,5.9-5.9,15.5,0,21.5l27.7,27.7c5.9,5.9,15.5,5.9,21.5,0L413.4,136
            c5.9-5.9,5.9-15.5,0-21.5L385.6,86.8z"/>
        <path d="M174.1,283.9l-7.4,37.4c-1.4,7.2,4.9,13.5,12.1,12.1l37.4-7.4c8.1-1.6,11.1-11.5,5.3-17.4l-30.1-30.1
            C185.6,272.8,175.7,275.8,174.1,283.9z"/>
        <path d="M442.6,90.1L410,57.5c-4.6-4.6-12-4.6-16.6,0l-3.7,3.7c-4.6,4.6-4.6,12,0,16.6l32.6,32.6c4.6,4.6,12,4.6,16.6,0l3.7-3.7
            C447.2,102.1,447.2,94.7,442.6,90.1z"/>
    </symbol>

    <symbol id="sprite_float_exit" viewBox="0 0 500 500">
        <path d="M373.4,96.5H126.6c-16.6,0-30.1,13.5-30.1,30.1v80.6h42.9v-54.5c0-7.3,5.9-13.2,13.2-13.2h194.6c7.3,0,13.2,5.9,13.2,13.2
			v194.6c0,7.3-5.9,13.2-13.2,13.2H152.7c-7.3,0-13.2-5.9-13.2-13.2v-54.5H96.5v80.6c0,16.6,13.5,30.1,30.1,30.1h246.8
			c16.6,0,30.1-13.5,30.1-30.1V126.6C403.5,110,390,96.5,373.4,96.5z"/>
		<path d="M109.3,280.3h84.6c7.1,0,12.8,5.5,12.8,12.3v6c0,10.6,13.1,16.2,21.3,9.2l56.7-48.6c5.7-4.9,5.7-13.4,0-18.3l-56.7-48.6
			c-8.3-7.1-21.3-1.5-21.3,9.2v6c0,6.8-5.7,12.3-12.8,12.3h-84.6c-7.1,0-12.8,5.5-12.8,12.3V268C96.5,274.8,102.2,280.3,109.3,280.3
			z"/>
    </symbol>

    <symbol id="sprite_btn_add" viewBox="0 0 500 500">
        <path d="M454.6,204.6H340.7c-25,0-45.4-20.3-45.4-45.4V45.4C295.4,20.3,275,0,250,0h0c-25,0-45.4,20.3-45.4,45.4v113.9
	c0,25-20.3,45.4-45.4,45.4H45.4C20.3,204.6,0,225,0,250v0c0,25,20.3,45.4,45.4,45.4h113.9c25,0,45.4,20.3,45.4,45.4v113.9
	c0,25,20.3,45.4,45.4,45.4h0c25,0,45.4-20.3,45.4-45.4V340.7c0-25,20.3-45.4,45.4-45.4h113.9c25,0,45.4-20.3,45.4-45.4v0
	C500,225,479.7,204.6,454.6,204.6z"/>
    </symbol>

    <symbol id="sprite_btn_del_task" viewBox="0 0 500 500">
        <path d="M362.6,73.2l-80.6,80.6c-17.7,17.7-46.4,17.7-64.1,0l-80.6-80.6c-17.7-17.7-46.4-17.7-64.1,0l0,0
	c-17.7,17.7-17.7,46.4,0,64.1l80.6,80.6c17.7,17.7,17.7,46.4,0,64.1l-80.6,80.6c-17.7,17.7-17.7,46.4,0,64.1l0,0
	c17.7,17.7,46.4,17.7,64.1,0l80.6-80.6c17.7-17.7,46.4-17.7,64.1,0l80.6,80.6c17.7,17.7,46.4,17.7,64.1,0l0,0
	c17.7-17.7,17.7-46.4,0-64.1l-80.6-80.6c-17.7-17.7-17.7-46.4,0-64.1l80.6-80.6c17.7-17.7,17.7-46.4,0-64.1l0,0
	C409.1,55.5,380.3,55.5,362.6,73.2z"/>
    </symbol>

    <symbol id="sprite_instagram" viewBox="0 0 512 512">
        <path d="M512.1,363.7c-0.9-35.9-0.2-71.9-0.2-107.8c0-37.6,0-75.3,0-112.8c0-29.7-8.7-56.7-26.6-80.2
			C453.1,20.8,409.5,0.8,357.2,0.3C289.8-0.3,222.4,0.1,155,0.1c-25.7,0.1-50.3,5.2-73,17C29.8,44.6,0.4,86.8,0.4,147.1
			c0,73.9,0,147.8,0,221.7c0,28,7.7,53.7,23.9,76.4c30.8,43.1,73.8,65,126.1,66c69.4,1.3,138.9,0.4,208.3,0.3
			c22.2,0,43.6-4.6,64-13.4C473.7,476.3,513.6,427.2,512.1,363.7z M256.7,380c-74.8,0-135.1-59.6-135.2-133.8
			c-0.1-73.1,60.7-132.9,135-132.9c74.6-0.1,135.1,59.6,135.2,133.3C391.7,320,331.3,379.9,256.7,380z M391.4,147.6
			c-17.9-0.1-32.6-15.5-32.6-34c-0.1-19,14.7-34.6,32.8-34.6c18.2,0,33,15.5,33,34.4C424.5,132.4,409.5,147.7,391.4,147.6z"/>
		<path d="M256.1,165.3c-45.3,0-82.3,36.5-82.3,81c0.1,45.2,36.8,81.6,82.4,81.6c45.4-0.1,82.3-36.5,82.3-81.4
			C338.5,201.7,301.6,165.3,256.1,165.3z"/>
    </symbol>

    <symbol id="sprite_vk" viewBox="0 0 512 512">
        <path d="M17.3,96.5c17.9,0,45.2,0,60.5,0c7.7,0,13.6,5.1,16.2,11.9c7.7,22.2,24.7,70.8,44.3,104c26.4,43.5,43.5,59.7,54.6,58
			c11.1-2.6,7.7-31.5,7.7-54.6s2.6-62.2-8.5-80.1L175,110.9c-4.3-6,0-13.6,6.8-13.6H279c9.4,0,17.1,7.7,17.1,17.1V238
			c0,0,4.3,22.2,28.1-0.9S373.6,171.5,395,128l8.5-20.5c2.6-6,8.5-10.2,15.3-10.2h63.1c11.9,0,20.5,11.9,16.2,23l-6.8,17.9
			c0,0-23,46-46.9,78.4c-23.9,33.2-29,40.9-25.6,49.4c3.4,8.5,64.8,65.6,80.1,92.9c4.3,7.7,7.7,14.5,11.1,20.5
			c6,11.1-2.6,25.6-15.3,25.6h-71.6c-6,0-11.9-3.4-14.5-8.5l-6.8-11.1c0,0-43.5-51.2-69.9-67.4c-27.3-15.3-26.4,6.8-26.4,6.8v45.2
			c0,18.8-15.3,34.1-34.1,34.1h-17.1c0,0-93.8,0-168.8-111.7c-58.8-87-78.4-143.2-85.3-175.6C-1.5,106.7,6.2,96.5,17.3,96.5z"/>
    </symbol>

    <symbol id="sprite_telegram" viewBox="0 0 512 512">
        <path class="st1" d="M470.4,39.1L16.8,215c-18.3,8.2-24.4,24.6-4.4,33.5l116.4,37.2l281.4-174.8c15.4-11,31.1-8,17.6,4L186.1,334.8
		l-7.6,93.1c7,14.4,19.9,14.4,28.1,7.3l66.9-63.6l114.5,86.2c26.6,15.8,41.1,5.6,46.8-23.4l75.1-357.5
		C517.6,41.2,504.3,25.5,470.4,39.1z"/>
    </symbol>
</svg>