<?xml version="1.0" encoding="utf-8"?>
<!-- Generator: Adobe Illustrator 24.1.0, SVG Export Plug-In . SVG Version: 6.00 Build 0)  -->
<svg version="1.1" id="Слой_1" xmlns="http://www.w3.org/2000/svg" xmlns:xlink="http://www.w3.org/1999/xlink" x="0px" y="0px"
	 viewBox="0 0 32 32" style="enable-background:new 0 0 32 32;" xml:space="preserve">
<style type="text/css">
	.st0{fill:#FFFFFF;}
</style>
<g>
	<path class="st0" d="M6.8,27.4c-1.1,0-1.9-1-1.9-2.2l0-14.2c0-0.8-0.5-1.5-1.2-1.5H2.5c-0.5,0-1-0.2-1.4-0.7
		c-0.3-0.4-0.5-1-0.5-1.6V6.9c0-1.2,0.9-2.2,1.9-2.2h8.9c1.1,0,1.9,1,1.9,2.2v0.3c0,1.2-0.9,2.2-1.9,2.2h-1.2
		c-0.6,0-1.2,0.7-1.2,1.5l0,14.2c0,1.2-0.9,2.2-1.9,2.2H6.8z"/>
	<path class="st0" d="M11.5,5C12.3,5,13,5.8,13,6.9v0.3c0,1-0.7,1.9-1.5,1.9h-1.2c-0.8,0-1.5,0.8-1.5,1.9l0,14.2
		c0,1-0.7,1.9-1.5,1.9H6.8c-0.8,0-1.5-0.8-1.5-1.9l0-14.2c0-1-0.7-1.9-1.5-1.9H2.5c0,0,0,0,0,0C1.7,9,1,8.2,1,7.2V6.9
		C1,5.8,1.7,5,2.5,5H11.5 M11.5,4.3H2.5c-1.3,0-2.3,1.2-2.3,2.6v0.3c0,1.4,1,2.6,2.3,2.6l1.2,0c0.4,0,0.8,0.5,0.8,1.1l0,14.2
		c0,1.4,1,2.6,2.3,2.6h0.3c1.3,0,2.3-1.2,2.3-2.6l0-14.2c0-0.6,0.4-1.1,0.8-1.1h1.2c1.3,0,2.3-1.2,2.3-2.6V6.9
		C13.8,5.4,12.7,4.3,11.5,4.3L11.5,4.3z"/>
</g>
<g>
	<path class="st0" d="M17.3,27.4c-0.9,0-1.7-1-1.7-2.2l0-18.2c0-1.2,0.8-2.2,1.7-2.2h2c0.8,0,1.4,0.7,1.7,1.6l2.4,9.7
		c0.1,0.3,0.1,0.4,0.2,0.4c0,0,0.1-0.2,0.1-0.4l2.4-9.7c0.2-1,0.9-1.6,1.6-1.6h1.9c0.9,0,1.7,1,1.7,2.2l0,18.2
		c0,0.7-0.2,1.3-0.7,1.8c-0.3,0.3-0.7,0.5-1,0.5h-0.3c-0.9,0-1.7-1-1.7-2.2c0,0,0-11.7,0-11.9l-2.4,7.5c-0.2,0.9-0.9,1.6-1.6,1.6
		h-0.4c-0.8,0-1.4-0.7-1.6-1.6L19,13.3c0,0.5,0,1,0,1.5l0,10.3C19,26.4,18.3,27.4,17.3,27.4z"/>
	<path class="st0" d="M29.7,5C30.4,5,31,5.9,31,6.9l0,18.2c0,1-0.6,1.9-1.3,1.9h-0.3c-0.7,0-1.3-0.8-1.3-1.9V13.8c0-1.4,0-3,0.1-4.7
		h-0.1c-0.1,1.4-0.3,2.3-0.4,2.9l-2.8,8.6c-0.2,0.8-0.7,1.4-1.3,1.4h-0.4c-0.6,0-1.1-0.5-1.3-1.3l-2.9-8.4c-0.1-0.4-0.2-1.4-0.4-3.1
		h-0.1c0.1,2.2,0.1,4.1,0.1,5.7l0,10.3c0,1-0.6,1.9-1.3,1.9c-0.7,0-1.3-0.8-1.3-1.9l0-18.2c0-1,0.6-1.9,1.3-1.9h2
		c0.6,0,1.1,0.6,1.3,1.4L23,16c0.1,0.5,0.3,0.7,0.5,0.7c0.2,0,0.4-0.3,0.5-0.7l2.4-9.6C26.7,5.6,27.2,5,27.8,5H29.7 M29.7,4.3h-1.9
		c-1,0-1.8,0.8-2,1.9L23.6,15l-2.2-8.8c-0.2-1.1-1.1-1.9-2-1.9h-2c-1.2,0-2.1,1.2-2.1,2.6l0,18.2c0,1.5,0.9,2.6,2.1,2.6
		c1.2,0,2.1-1.2,2.1-2.6l0-9.5l1.8,5.2c0.3,1.1,1.1,1.9,2,1.9h0.4c1,0,1.8-0.8,2-1.9l1.7-5.2v9.5c0,1.5,0.9,2.6,2.1,2.6h0.3
		c0.5,0,0.9-0.2,1.3-0.6c0.5-0.5,0.8-1.2,0.8-2l0-18.2C31.8,5.4,30.8,4.3,29.7,4.3L29.7,4.3z"/>
</g>
</svg>
