<?xml version="1.0" standalone="no"?>
  <!DOCTYPE svg PUBLIC "-//W3C//DTD SVG 1.1//EN" "http://www.w3.org/Graphics/SVG/1.1/DTD/svg11.dtd" >
  <svg>
  <metadata>
  Created by font-carrier
  </metadata>
  <defs>
  <font id="Comfortaa-Bold" horiz-adv-x="2640" vert-adv-y="2640" >
    <font-face
      
      font-family="Comfortaa"
      
      font-weight="400"
      
      font-stretch="normal"
      
      units-per-em="2048"
      
      ascent="2080"
      
      descent="-480"
      
    />
      <missing-glyph />

      

      
      <glyph glyph-name="uni21" unicode="&#x21;" d="M353 142Q353 112 341.50 86Q330 60 310.50 41Q291 22 265 11Q239 0 211 0Q182 0 156.50 11Q131 22 111.50 41Q92 60 80.50 86Q69 112 69 142Q69 171 80 197Q91 223 110.50 242.50Q130 262 156 273.50Q182 285 211 285Q240 285 266 273.50Q292 262 311.50 242.50Q331 223 342 197Q353 171 353 142M107 1494Q107 1538 136.50 1568.50Q166 1599 211 1599Q256 1599 285.50 1568.50Q315 1538 315 1494L315 450Q315 429 306.50 410Q298 391 284 377Q270 363 251 355Q232 347 211 347Q189 347 170 355.50Q151 364 137 378Q123 392 115 410.50Q107 429 107 450L107 1494Z"  horiz-adv-x="400" vert-adv-y="2048"  />

      
      <glyph glyph-name="uni22" unicode="&#x22;" d="M269 1494L250 1208Q249 1173 224.50 1148.50Q200 1124 165 1124Q130 1124 105.50 1148.50Q81 1173 80 1208L61 1494Q61 1515 69 1534Q77 1553 91.50 1567.50Q106 1582 125 1590Q144 1598 165 1598Q186 1598 205 1590Q224 1582 238.50 1567.50Q253 1553 261 1534Q269 1515 269 1494M516 1495L497 1209Q496 1174 471.50 1149.50Q447 1125 412 1125Q377 1125 352.50 1149.50Q328 1174 327 1209L308 1495Q308 1516 316 1535Q324 1554 338.50 1568.50Q353 1583 372 1591Q391 1599 412 1599Q433 1599 452 1591Q471 1583 485.50 1568.50Q500 1554 508 1535Q516 1516 516 1495Z"  horiz-adv-x="560" vert-adv-y="2048"  />

      
      <glyph glyph-name="uni23" unicode="&#x23;" d="M426 102Q422 80 410.50 62Q399 44 383 30Q367 16 347 8Q327 0 306 0Q263 0 237.50 27.50Q212 55 212 95Q212 103 213 111L276 464L157 464Q138 464 121 470.50Q104 477 90.50 489Q77 501 70 518Q63 535 63 555L64 574Q67 596 78 614Q89 632 106 646Q123 660 143.50 667.50Q164 675 184 675L313 675L357 926L238 926Q197 926 170 952.50Q143 979 143 1018Q143 1042 153.50 1064Q164 1086 180.50 1102.50Q197 1119 219.50 1128.50Q242 1138 265 1138L394 1138L458 1500Q462 1522 473.50 1540Q485 1558 501 1572Q517 1586 537 1594Q557 1602 578 1602Q621 1602 646.50 1574Q672 1546 672 1505Q672 1495 671 1490L609 1138L781 1138L845 1500Q848 1522 859 1540Q870 1558 886.50 1572Q903 1586 922.50 1594Q942 1602 964 1602Q1006 1602 1032 1573.50Q1058 1545 1058 1505Q1058 1495 1057 1490L995 1138L1115 1138Q1133 1138 1150 1131.50Q1167 1125 1180 1113Q1193 1101 1200.50 1084Q1208 1067 1208 1047L1207 1028Q1204 1006 1192.50 988Q1181 970 1164.50 956Q1148 942 1127.50 934Q1107 926 1087 926L958 926L913 675L1033 675Q1074 675 1100.50 648.50Q1127 622 1127 583Q1127 559 1117 537Q1107 515 1090 499Q1073 483 1051 473.50Q1029 464 1005 464L876 464L812 102Q808 80 797 62Q786 44 769.50 30Q753 16 733.50 8Q714 0 692 0Q652 0 625 26.50Q598 53 598 91Q598 101 600 111L662 464L490 464L426 102M571 926L528 675L698 675L743 926L571 926Z"  horiz-adv-x="1280" vert-adv-y="2048"  />

      
      <glyph glyph-name="uni24" unicode="&#x24;" d="M457 1337Q361 1275 361 1167Q361 1117 386 1069Q411 1021 457 995L457 1337M665 261Q695 285 717 308.50Q739 332 752.50 358.50Q766 385 772.50 416.50Q779 448 779 488Q779 551 751 611Q723 671 665 709L665 261M457-47L457 3Q348 14 253.50 70Q159 126 98 218Q77 245 77 282Q77 327 106.50 356.50Q136 386 181 386Q205 386 223.50 375Q242 364 260 347Q278 330 296 309.50Q314 289 337 270Q360 251 389 235.50Q418 220 457 214L457 770Q392 787 336 824.50Q280 862 239 914.50Q198 967 175 1030.50Q152 1094 152 1163Q152 1233 174 1297Q196 1361 236 1413.50Q276 1466 332 1504.50Q388 1543 457 1561L457 1623Q457 1668 486.50 1697.50Q516 1727 561 1727Q606 1727 635.50 1697.50Q665 1668 665 1623L665 1560Q701 1551 737 1534Q773 1517 805 1493.50Q837 1470 864.50 1440Q892 1410 911 1375Q918 1362 922 1349Q926 1336 926 1319Q926 1274 896.50 1244.50Q867 1215 822 1215Q793 1215 775 1227Q757 1239 741 1257Q725 1275 708 1296.50Q691 1318 665 1336L665 942Q735 917 794.50 871.50Q854 826 897 766.50Q940 707 964 636.50Q988 566 988 491Q988 413 965.50 341Q943 269 901 208.50Q859 148 799.50 101Q740 54 665 27L665-47Q665-68 657-87Q649-106 634.50-120.50Q620-135 601-143Q582-151 561-151Q539-151 520-143Q501-135 487-120.50Q473-106 465-87Q457-68 457-47Z"  horiz-adv-x="1060" vert-adv-y="2048"  />

      
      <glyph glyph-name="uni25" unicode="&#x25;" d="M872 1190Q872 1107 840 1033Q808 959 752.50 903Q697 847 622.50 814.50Q548 782 464 782Q380 782 305.50 814.50Q231 847 175.50 903Q120 959 88 1033Q56 1107 56 1190Q56 1273 88 1347.50Q120 1422 175.50 1478Q231 1534 305.50 1566.50Q380 1599 464 1599Q548 1599 622.50 1566.50Q697 1534 752.50 1478Q808 1422 840 1347.50Q872 1273 872 1190M889 408Q889 491 921 565.50Q953 640 1008.50 695.50Q1064 751 1138 783.50Q1212 816 1297 816Q1380 816 1454 784Q1528 752 1584 697Q1640 642 1672.50 567.50Q1705 493 1705 408Q1705 323 1672.50 249Q1640 175 1584.50 119.50Q1529 64 1454.50 32Q1380 0 1297 0Q1213 0 1139 32.50Q1065 65 1009.50 120.50Q954 176 921.50 250Q889 324 889 408M464 1390Q422 1390 386 1374Q350 1358 323 1330.50Q296 1303 280.50 1266.50Q265 1230 265 1190Q265 1149 280.50 1113Q296 1077 322.50 1050Q349 1023 385.50 1007Q422 991 464 991Q505 991 541.50 1007Q578 1023 605 1050Q632 1077 647.50 1113Q663 1149 663 1190Q663 1230 647 1266.50Q631 1303 604 1330.50Q577 1358 541 1374Q505 1390 464 1390M1297 607Q1256 607 1219.50 591.50Q1183 576 1156 549Q1129 522 1113.50 485.50Q1098 449 1098 408Q1098 367 1113.50 330.50Q1129 294 1156 267Q1183 240 1219.50 224.50Q1256 209 1297 209Q1338 209 1374.50 225Q1411 241 1438 268Q1465 295 1481 331Q1497 367 1497 408Q1497 449 1481 485Q1465 521 1438 548Q1411 575 1374.50 591Q1338 607 1297 607M342 0Q320 0 301 8Q282 16 268 30.50Q254 45 246 64Q238 83 238 104Q238 147 263 175L1340 1558Q1376 1600 1424 1600Q1446 1600 1465 1591.50Q1484 1583 1498 1569Q1512 1555 1520.50 1536Q1529 1517 1529 1495Q1529 1459 1508 1432L420 33Q390 0 342 0Z"  horiz-adv-x="1760" vert-adv-y="2048"  />

      
      <glyph glyph-name="uni26" unicode="&#x26;" d="M510 1007L605 1082Q645 1115 667 1151.50Q689 1188 689 1225Q689 1259 676 1289Q663 1319 640 1341.50Q617 1364 587.50 1377Q558 1390 525 1390Q491 1390 461 1376.50Q431 1363 409 1340.50Q387 1318 374.50 1288Q362 1258 362 1225Q362 1157 408 1110L510 1007M810 407L489 729L399 660Q344 614 314 567.50Q284 521 284 473Q284 413 303 364.50Q322 316 355 282.50Q388 249 432 230.50Q476 212 525 212Q624 212 695 282L810 407M659 859L955 560L1106 722Q1120 737 1140 744.50Q1160 752 1181 752Q1226 752 1257 722Q1288 692 1288 646Q1288 625 1281 607.50Q1274 590 1260 574L1106 409L1334 179Q1365 148 1365 106Q1365 84 1356.50 65Q1348 46 1333.50 31Q1319 16 1300 8Q1281 0 1258 0Q1216 0 1184 28L960 254L846 133Q712 0 525 0Q433 0 350.50 35Q268 70 206 133Q144 196 108 283Q72 370 72 473Q72 568 119.50 653.50Q167 739 265 815L342 875L258 959L259 959Q149 1071 149 1225Q149 1302 179 1371Q209 1440 261 1491Q313 1542 381 1572Q449 1602 525 1602Q603 1602 671.50 1571.50Q740 1541 790.50 1489.50Q841 1438 871 1369.50Q901 1301 901 1225Q901 1058 750 927L659 859Z"  horiz-adv-x="1440" vert-adv-y="2048"  />

      
      <glyph glyph-name="uni27" unicode="&#x27;" d="M269 1494L250 1208Q249 1173 224.50 1148.50Q200 1124 165 1124Q130 1124 105.50 1148.50Q81 1173 80 1208L61 1494Q61 1515 69 1534Q77 1553 91.50 1567.50Q106 1582 125 1590Q144 1598 165 1598Q186 1598 205 1590Q224 1582 238.50 1567.50Q253 1553 261 1534Q269 1515 269 1494Z"  horiz-adv-x="320" vert-adv-y="2048"  />

      
      <glyph glyph-name="uni28" unicode="&#x28;" d="M303 1525Q319 1560 345 1578.50Q371 1597 402 1597Q424 1597 443 1588.50Q462 1580 476 1565Q490 1550 498 1530.50Q506 1511 506 1489Q503 1455 491 1436Q277 998 277 560Q277 343 333 119.50Q389-104 493-321Q499-334 502.50-346Q506-358 506-373Q506-418 476.50-449Q447-480 402-480Q370-480 346-463.50Q322-447 304-409Q71 74 71 561Q71 1049 303 1525Z"  horiz-adv-x="560" vert-adv-y="2048"  />

      
      <glyph glyph-name="uni29" unicode="&#x29;" d="M506 561Q506 315 447.50 74.50Q389-166 273-409Q255-447 231-463.50Q207-480 175-480Q130-480 100.50-449Q71-418 71-373Q71-358 74.50-346Q78-334 84-321Q188-104 244 119.50Q300 343 300 560Q300 998 86 1436Q74 1455 71 1489Q71 1511 79 1530.50Q87 1550 101 1565Q115 1580 134 1588.50Q153 1597 175 1597Q207 1597 232 1578.50Q257 1560 274 1525Q390 1284 447.50 1044.50Q505 805 506 561Z"  horiz-adv-x="560" vert-adv-y="2048"  />

      
      <glyph glyph-name="uni2a" unicode="&#x2a;" d="M283 1233L180 1237Q138 1242 108 1270.50Q78 1299 78 1342Q78 1366 87.50 1385Q97 1404 112 1417.50Q127 1431 145.50 1438.50Q164 1446 182 1446Q199 1447 216 1440.50Q233 1434 247 1424L327 1366L298 1460Q293 1478 293 1494Q293 1538 322.50 1568.50Q352 1599 397 1599Q442 1599 471.50 1568.50Q501 1538 501 1494Q501 1478 496 1460L467 1364L547 1424Q577 1446 612 1446Q631 1446 649.50 1438.50Q668 1431 683 1417Q698 1403 707.50 1384Q717 1365 717 1341Q717 1322 710 1304Q703 1286 689.50 1271.50Q676 1257 657.50 1248Q639 1239 616 1237L512 1232L595 1174Q643 1139 643 1087Q643 1045 613 1014.50Q583 984 524 984Q493 987 473 1005Q453 1023 440 1055L398 1158L356 1053Q345 1018 318.50 1000.50Q292 983 256 983Q232 983 212.50 992Q193 1001 179.50 1015.50Q166 1030 159 1048.50Q152 1067 152 1087Q151 1113 164 1135Q177 1157 200 1174L283 1233Z"  horiz-adv-x="780" vert-adv-y="2048"  />

      
      <glyph glyph-name="uni2b" unicode="&#x2b;" d="M941 683L666 683L666 408Q666 363 636.50 333.50Q607 304 562 304Q517 304 487 333.50Q457 363 457 408L457 683L182 683Q137 683 107.50 713Q78 743 78 788Q78 833 107.50 862.50Q137 892 182 892L457 892L457 1167Q457 1210 487.50 1241Q518 1272 562 1272Q607 1272 636.50 1241.50Q666 1211 666 1167L666 892L941 892Q984 892 1015 861.50Q1046 831 1046 787Q1046 744 1015 713.50Q984 683 941 683Z"  horiz-adv-x="1120" vert-adv-y="2048"  />

      
      <glyph glyph-name="uni2c" unicode="&#x2c;" d="M353 142Q353 86 342.50 21Q332-44 311.50-99.50Q291-155 261-191.50Q231-228 192-228Q156-228 131.50-203Q107-178 107-142Q107-111 129-86.50Q151-62 151-36Q151 0 110 42Q69 83 69 142Q69 201 110.50 242.50Q152 284 211 284Q270 284 311.50 242.50Q353 201 353 142Z"  horiz-adv-x="400" vert-adv-y="2048"  />

      
      <glyph glyph-name="uni2d" unicode="&#x2d;" d="M178 456Q133 456 103.50 485.50Q74 515 74 560Q74 605 103.50 634.50Q133 664 178 664L634 664Q679 664 708.50 634.50Q738 605 738 560Q738 515 708.50 485.50Q679 456 634 456L178 456Z"  horiz-adv-x="800" vert-adv-y="2048"  />

      
      <glyph glyph-name="uniad" unicode="&#xad;" d="M178 456Q133 456 103.50 485.50Q74 515 74 560Q74 605 103.50 634.50Q133 664 178 664L634 664Q679 664 708.50 634.50Q738 605 738 560Q738 515 708.50 485.50Q679 456 634 456L178 456Z"  horiz-adv-x="800" vert-adv-y="2048"  />

      
      <glyph glyph-name="uni2e" unicode="&#x2e;" d="M343 142Q343 83 301.50 41.50Q260 0 201 0Q142 0 100.50 41.50Q59 83 59 142Q59 201 100.50 242.50Q142 284 201 284Q260 284 301.50 242.50Q343 201 343 142Z"  horiz-adv-x="400" vert-adv-y="2048"  />

      
      <glyph glyph-name="uni2f" unicode="&#x2f;" d="M893 1452L276-90Q239-152 180-152Q135-152 105.50-122Q76-92 76-47Q76-27 85-4L702 1538Q710 1555 725 1570Q755 1600 798 1600Q841 1600 871.50 1569.50Q902 1539 902 1496Q902 1472 893 1452Z"  horiz-adv-x="960" vert-adv-y="2048"  />

      
      <glyph glyph-name="uni30" unicode="&#x30;" d="M78 801Q78 990 111 1138.50Q144 1287 206 1390Q268 1493 359 1547.50Q450 1602 567 1602Q684 1602 775 1546.50Q866 1491 928.50 1387.50Q991 1284 1023.50 1135.50Q1056 987 1056 801Q1056 615 1023.50 466.50Q991 318 928.50 214.50Q866 111 775 55.50Q684 0 567 0Q450 0 359 54.50Q268 109 206 211.50Q144 314 111 463Q78 612 78 801M567 1390Q497 1390 444.50 1345Q392 1300 357.50 1222Q323 1144 306 1035.50Q289 927 289 801Q289 673 306 564.50Q323 456 358 378Q393 300 445 256Q497 212 567 212Q638 212 690.50 257Q743 302 777 380.50Q811 459 828 567Q845 675 845 801Q845 926 827.50 1034Q810 1142 776 1221Q742 1300 689.50 1345Q637 1390 567 1390Z"  horiz-adv-x="1120" vert-adv-y="2048"  />

      
      <glyph glyph-name="uni31" unicode="&#x31;" d="M288 104L288 1349Q258 1339 225 1326.50Q192 1314 165 1314Q120 1314 90.50 1343.50Q61 1373 61 1418Q61 1450 77.50 1475Q94 1500 128 1516L357 1592Q375 1599 393 1599Q438 1599 467.50 1568.50Q497 1538 497 1494L497 104Q497 61 466.50 30.50Q436 0 392 0Q349 0 318.50 30.50Q288 61 288 104Z"  horiz-adv-x="560" vert-adv-y="2048"  />

      
      <glyph glyph-name="uni32" unicode="&#x32;" d="M78 1115Q78 1215 116.50 1303Q155 1391 221 1457Q287 1523 375 1561Q463 1599 562 1599Q661 1599 749 1560Q837 1521 903 1455Q969 1389 1007.50 1301Q1046 1213 1046 1115Q1046 1015 1009.50 929Q973 843 904 773L418 209L941 209Q985 209 1015.50 178Q1046 147 1046 104Q1046 61 1015.50 30.50Q985 0 941 0L182 0Q160 0 141 8Q122 16 108 30.50Q94 45 86 64Q78 83 78 104Q78 149 107 178L755 918Q837 1000 837 1115Q837 1171 815 1221Q793 1271 755.50 1308.50Q718 1346 668 1368Q618 1390 562 1390Q505 1390 455 1368.50Q405 1347 367.50 1310Q330 1273 308.50 1223Q287 1173 287 1115Q287 1072 256.50 1041.50Q226 1011 182 1011Q139 1011 108.50 1041.50Q78 1072 78 1115Z"  horiz-adv-x="1120" vert-adv-y="2048"  />

      
      <glyph glyph-name="uni33" unicode="&#x33;" d="M154 1186Q154 1273 186.50 1348.50Q219 1424 274.50 1480.50Q330 1537 404 1569.50Q478 1602 562 1602Q646 1602 720 1569Q794 1536 849.50 1479Q905 1422 937.50 1347Q970 1272 970 1186Q970 1020 847 891Q1046 732 1046 492Q1046 391 1008 301.50Q970 212 904 145Q838 78 750 39Q662 0 562 0Q462 0 374 38.50Q286 77 220 144Q154 211 116 300.50Q78 390 78 492Q78 538 107.50 568Q137 598 182 598Q226 598 256.50 568Q287 538 287 492Q287 433 308.50 382Q330 331 367 293.50Q404 256 454 234Q504 212 562 212Q619 212 669.50 234.50Q720 257 757 295Q794 333 815.50 384Q837 435 837 492Q837 549 815.50 600Q794 651 757 689Q720 727 669.50 749.50Q619 772 562 772Q517 772 487 802.50Q457 833 457 878Q457 924 487 954Q517 984 562 984Q602 984 638.50 1000Q675 1016 702 1043.50Q729 1071 745 1108Q761 1145 761 1186Q761 1228 745 1265Q729 1302 701.50 1329.50Q674 1357 638 1373.50Q602 1390 562 1390Q521 1390 484.50 1373.50Q448 1357 421 1329.50Q394 1302 378 1265Q362 1228 363 1186Q363 1143 332.50 1112Q302 1081 258 1081Q215 1081 184.50 1112Q154 1143 154 1186Z"  horiz-adv-x="1120" vert-adv-y="2048"  />

      
      <glyph glyph-name="uni34" unicode="&#x34;" d="M763 611L763 1160L384 611L763 611M763 104L763 403L184 403Q139 403 109.50 432.50Q80 462 80 507Q80 542 100 568L782 1555Q796 1575 818.50 1587Q841 1599 868 1599Q889 1599 908 1590.50Q927 1582 941.50 1568Q956 1554 964 1535Q972 1516 972 1494L972 611L1095 611Q1139 611 1169.50 581.50Q1200 552 1200 507Q1200 462 1169.50 432.50Q1139 403 1095 403L972 403L972 104Q972 61 941.50 30.50Q911 0 867 0Q824 0 793.50 30.50Q763 61 763 104Z"  horiz-adv-x="1280" vert-adv-y="2048"  />

      
      <glyph glyph-name="uni35" unicode="&#x35;" d="M942 1390L363 1390L363 1044L601 1044Q706 1044 800.50 1003Q895 962 967 891.50Q1039 821 1081 725.50Q1123 630 1123 522Q1123 415 1081.50 320Q1040 225 969 154Q898 83 803 41.50Q708 0 601 0Q494 0 399 41.50Q304 83 233 154Q162 225 120.50 320Q79 415 79 522Q79 567 108.50 596.50Q138 626 183 626Q227 626 257.50 596.50Q288 567 288 522Q288 457 312.50 400Q337 343 379.50 300.50Q422 258 479 233.50Q536 209 601 209Q665 209 722 233.50Q779 258 822 301Q865 344 889.50 400.50Q914 457 914 522Q914 586 889 643Q864 700 821.50 742.50Q779 785 722 810Q665 835 601 835L259 835Q214 835 184.50 865Q155 895 155 940L155 1494Q155 1538 184.50 1568.50Q214 1599 259 1599L942 1599Q986 1599 1016.50 1568Q1047 1537 1047 1494Q1047 1451 1016.50 1420.50Q986 1390 942 1390Z"  horiz-adv-x="1200" vert-adv-y="2048"  />

      
      <glyph glyph-name="uni36" unicode="&#x36;" d="M533 968L562 968Q662 968 750 929.50Q838 891 904 825Q970 759 1008 671Q1046 583 1046 484Q1046 385 1008 297Q970 209 904 143Q838 77 750 38.50Q662 0 562 0Q462 0 374 38Q286 76 220 142Q154 208 116 296Q78 384 78 484Q78 632 156 749L155 747L635 1544Q650 1569 674 1584.50Q698 1600 728 1600Q773 1600 802.50 1569.50Q832 1539 832 1495Q832 1470 818 1442L533 968M837 484Q837 540 815.50 590Q794 640 757 677.50Q720 715 669.50 737Q619 759 562 759Q504 759 454 737.50Q404 716 367 679Q330 642 308.50 591.50Q287 541 287 484Q287 426 308.50 376Q330 326 367 289Q404 252 454 230.50Q504 209 562 209Q619 209 669.50 231Q720 253 757 290.50Q794 328 815.50 378Q837 428 837 484Z"  horiz-adv-x="1120" vert-adv-y="2048"  />

      
      <glyph glyph-name="uni37" unicode="&#x37;" d="M96 169L778 1391L195 1391Q150 1391 120.50 1420.50Q91 1450 91 1495Q91 1539 120.50 1569.50Q150 1600 195 1600L954 1600Q976 1600 995 1591.50Q1014 1583 1028 1569Q1042 1555 1050.50 1536Q1059 1517 1059 1495Q1059 1468 1044 1439L276 58Q268 43 256 31Q225 0 181 0Q138 0 107.50 30.50Q77 61 77 104Q77 136 96 169Z"  horiz-adv-x="1120" vert-adv-y="2048"  />

      
      <glyph glyph-name="uni38" unicode="&#x38;" d="M569 1386Q527 1386 490 1370Q453 1354 425.50 1326.50Q398 1299 382 1262Q366 1225 366 1183Q366 1142 381.50 1105Q397 1068 424.50 1040.50Q452 1013 489 997.50Q526 982 569 982Q609 982 646 998Q683 1014 710.50 1041.50Q738 1069 754.50 1105.50Q771 1142 771 1183Q771 1225 754.50 1262Q738 1299 710 1326.50Q682 1354 645.50 1370Q609 1386 569 1386M569 770Q510 770 459.50 748Q409 726 371.50 688.50Q334 651 312 600Q290 549 290 491Q290 432 312 381.50Q334 331 371.50 293.50Q409 256 459.50 234Q510 212 569 212Q627 212 678 234.50Q729 257 766.50 295Q804 333 826 383.50Q848 434 848 491Q848 548 826 598.50Q804 649 766.50 687Q729 725 678 747.50Q627 770 569 770M279 888Q155 1012 155 1183Q155 1269 188 1345Q221 1421 277.50 1477Q334 1533 409 1565.50Q484 1598 569 1598Q654 1598 729 1565Q804 1532 860.50 1475.50Q917 1419 949.50 1343.50Q982 1268 982 1183Q982 1013 858 888Q1060 729 1060 491Q1060 390 1021 301Q982 212 915.50 145Q849 78 759.50 39Q670 0 569 0Q467 0 378 38.50Q289 77 222 144Q155 211 116.50 300Q78 389 78 491Q78 730 279 888Z"  horiz-adv-x="1120" vert-adv-y="2048"  />

      
      <glyph glyph-name="uni39" unicode="&#x39;" d="M597 615L569 615Q468 615 379 654Q290 693 223 759.50Q156 826 117 915.50Q78 1005 78 1107Q78 1209 117 1298Q156 1387 223 1454Q290 1521 379 1559.50Q468 1598 569 1598Q669 1598 758.50 1558.50Q848 1519 914.50 1452Q981 1385 1020.50 1296Q1060 1207 1060 1107Q1060 958 980 839L509 57Q473 0 415 0Q392 0 373 8Q354 16 339 31Q324 46 316 65Q308 84 308 105Q308 134 323 160L597 615M290 1107Q290 1047 312.50 996Q335 945 373 907.50Q411 870 461.50 848.50Q512 827 569 827Q627 827 677.50 849.50Q728 872 766 910Q804 948 826 998.50Q848 1049 848 1107Q848 1164 825.50 1214.50Q803 1265 765 1303Q727 1341 676.50 1363.50Q626 1386 569 1386Q511 1386 460.50 1364Q410 1342 372 1304.50Q334 1267 312 1216.50Q290 1166 290 1107Z"  horiz-adv-x="1120" vert-adv-y="2048"  />

      
      <glyph glyph-name="uni3a" unicode="&#x3a;" d="M343 142Q343 83 301.50 41.50Q260 0 201 0Q142 0 100.50 41.50Q59 83 59 142Q59 201 100.50 242.50Q142 284 201 284Q260 284 301.50 242.50Q343 201 343 142M343 976Q343 917 301.50 875.50Q260 834 201 834Q142 834 100.50 875.50Q59 917 59 976Q59 1035 100.50 1076.50Q142 1118 201 1118Q260 1118 301.50 1076.50Q343 1035 343 976Z"  horiz-adv-x="400" vert-adv-y="2048"  />

      
      <glyph glyph-name="uni3b" unicode="&#x3b;" d="M343 976Q343 917 301.50 875.50Q260 834 201 834Q142 834 100.50 875.50Q59 917 59 976Q59 1035 100.50 1076.50Q142 1118 201 1118Q260 1118 301.50 1076.50Q343 1035 343 976M343 142Q343 86 332.50 21Q322-44 301.50-99.50Q281-155 251-191.50Q221-228 182-228Q146-228 121.50-203Q97-178 97-142Q97-111 119-86.50Q141-62 141-36Q141 0 100 42Q59 83 59 142Q59 201 100.50 242.50Q142 284 201 284Q260 284 301.50 242.50Q343 201 343 142Z"  horiz-adv-x="400" vert-adv-y="2048"  />

      
      <glyph glyph-name="uni037E" unicode="&#x037E;" d="M343 976Q343 917 301.50 875.50Q260 834 201 834Q142 834 100.50 875.50Q59 917 59 976Q59 1035 100.50 1076.50Q142 1118 201 1118Q260 1118 301.50 1076.50Q343 1035 343 976M343 142Q343 86 332.50 21Q322-44 301.50-99.50Q281-155 251-191.50Q221-228 182-228Q146-228 121.50-203Q97-178 97-142Q97-111 119-86.50Q141-62 141-36Q141 0 100 42Q59 83 59 142Q59 201 100.50 242.50Q142 284 201 284Q260 284 301.50 242.50Q343 201 343 142Z"  horiz-adv-x="400" vert-adv-y="2048"  />

      
      <glyph glyph-name="uni3c" unicode="&#x3c;" d="M889 1259Q911 1272 941 1272Q963 1272 982 1263.50Q1001 1255 1015 1241Q1029 1227 1037.50 1208Q1046 1189 1046 1167Q1046 1110 994 1076L385 712L994 346Q1046 312 1046 256Q1046 211 1015.50 181.50Q985 152 941 152Q911 152 889 165L133 619Q78 653 78 712Q78 767 133 804L889 1259Z"  horiz-adv-x="1120" vert-adv-y="2048"  />

      
      <glyph glyph-name="uni3d" unicode="&#x3d;" d="M864 835L181 835Q136 835 106.50 865Q77 895 77 940Q77 985 106.50 1014.50Q136 1044 181 1044L864 1044Q907 1044 937.50 1013.50Q968 983 968 940Q968 896 937.50 865.50Q907 835 864 835M864 379L181 379Q136 379 106.50 409Q77 439 77 484Q77 529 106.50 558.50Q136 588 181 588L864 588Q907 588 937.50 557.50Q968 527 968 484Q968 440 937.50 409.50Q907 379 864 379Z"  horiz-adv-x="1040" vert-adv-y="2048"  />

      
      <glyph glyph-name="uni3e" unicode="&#x3e;" d="M991 804Q1046 767 1046 712Q1046 653 991 619L235 165Q213 152 183 152Q139 152 108.50 181.50Q78 211 78 256Q78 312 130 346L739 712L130 1076Q78 1110 78 1167Q78 1189 86.50 1208Q95 1227 109 1241Q123 1255 142 1263.50Q161 1272 183 1272Q213 1272 235 1259L991 804Z"  horiz-adv-x="1120" vert-adv-y="2048"  />

      
      <glyph glyph-name="uni3f" unicode="&#x3f;" d="M287 1115Q287 1093 278.50 1074Q270 1055 256 1040.50Q242 1026 223 1018Q204 1010 182 1010Q137 1010 107.50 1040Q78 1070 78 1115Q78 1215 116.50 1303Q155 1391 221 1457Q287 1523 375 1561Q463 1599 562 1599Q661 1599 749 1560Q837 1521 903 1455Q969 1389 1007.50 1301Q1046 1213 1046 1115Q1046 917 903 771L746 626Q666 546 666 451Q666 406 636.50 376.50Q607 347 562 347Q517 347 487 376.50Q457 406 457 451Q457 631 600 774L757 920Q837 1003 837 1115Q837 1171 815 1221Q793 1271 755.50 1308.50Q718 1346 668 1368Q618 1390 562 1390Q505 1390 455 1368.50Q405 1347 367.50 1310Q330 1273 308.50 1223Q287 1173 287 1115M704 142Q704 83 662.50 41.50Q621 0 562 0Q503 0 461.50 41.50Q420 83 420 142Q420 201 461.50 242.50Q503 284 562 284Q621 284 662.50 242.50Q704 201 704 142Z"  horiz-adv-x="1120" vert-adv-y="2048"  />

      
      <glyph glyph-name="uni40" unicode="&#x40;" d="M1121 917Q1047 917 981 889Q915 861 866.50 813Q818 765 789.50 699Q761 633 761 559Q761 485 789.50 419Q818 353 866.50 305Q915 257 981 229Q1047 201 1121 201Q1195 201 1261 229.50Q1327 258 1375 307Q1423 356 1451 421Q1479 486 1479 559Q1479 632 1451 697Q1423 762 1375 811Q1327 860 1261 888.50Q1195 917 1121 917M1742-92Q1512-92 1484 115Q1324-14 1121-14Q884-14 716 154Q548 322 548 559Q548 796 716 964Q884 1132 1121 1132Q1358 1132 1525 964Q1694 796 1694 559L1694 170Q1694 122 1742 122Q1946 122 1946 559Q1946 734 1885.50 878Q1825 1022 1704 1142Q1582 1263 1438 1324Q1294 1385 1121 1385Q778 1385 536 1142Q295 902 295 559Q295 216 536-24Q778-267 1121-267Q1303-267 1461-197Q1485-183 1511-183Q1556-183 1586.50-214.50Q1617-246 1617-291Q1617-324 1597.50-352.50Q1578-381 1549-390Q1351-480 1121-480Q691-480 386-175Q82 130 82 559Q82 987 386 1293Q691 1598 1121 1598Q1549 1598 1854 1293Q2159 987 2159 559Q2159-92 1742-92Z"  horiz-adv-x="2240" vert-adv-y="2048"  />

      
      <glyph glyph-name="uni41" unicode="&#x41;" d="M897 752L723 1201L549 752L897 752M88 154L622 1528Q654 1600 723 1600Q794 1600 824 1528L1360 149Q1368 129 1368 106Q1368 62 1337 31Q1306 0 1262 0Q1218 0 1188 31Q1172 47 1164 65L979 540L467 540L281 65Q273 47 257 31Q226 0 182 0Q138 0 107.50 31Q77 62 77 106Q77 130 88 154Z"  horiz-adv-x="1440" vert-adv-y="2048"  />

      
      <glyph glyph-name="uni42" unicode="&#x42;" d="M286 1388L286 983L489 983Q531 983 567.50 999Q604 1015 631.50 1043Q659 1071 675 1107.50Q691 1144 691 1186Q691 1227 675 1263.50Q659 1300 631 1328Q603 1356 566.50 1372Q530 1388 489 1388L286 1388M286 771L286 212L566 212Q624 212 675 234Q726 256 763.50 294Q801 332 823 383Q845 434 845 492Q845 549 823 600Q801 651 763 689Q725 727 674 749Q623 771 566 771L286 771M489 1600Q574 1600 649.50 1567.50Q725 1535 781.50 1478.50Q838 1422 870.50 1346.50Q903 1271 903 1186Q903 1034 809 921Q870 885 916 838Q962 791 993.50 735.50Q1025 680 1041 618.50Q1057 557 1057 492Q1057 391 1018 301.50Q979 212 912.50 145Q846 78 756.50 39Q667 0 566 0L180 0Q158 0 139 8.50Q120 17 105.50 31Q91 45 82.50 64.50Q74 84 74 106L74 1494Q74 1516 82.50 1535.50Q91 1555 105.50 1569Q120 1583 139 1591.50Q158 1600 180 1600L489 1600Z"  horiz-adv-x="1120" vert-adv-y="2048"  />

      
      <glyph glyph-name="uni43" unicode="&#x43;" d="M1308 360Q1330 360 1349 351.50Q1368 343 1382.50 329Q1397 315 1405.50 295.50Q1414 276 1414 254Q1414 212 1381 178Q1158 0 878 0Q546 0 312 234Q78 468 78 800Q78 1131 312 1365Q547 1600 878 1600Q1162 1600 1391 1413Q1419 1386 1419 1340Q1419 1317 1411 1298Q1403 1279 1388.50 1264.50Q1374 1250 1354.50 1242Q1335 1234 1313 1234Q1274 1234 1240 1264Q1164 1324 1072.50 1356Q981 1388 878 1388Q634 1388 461 1215Q290 1044 290 800Q290 555 461 384Q633 212 878 212Q1087 212 1246 341Q1272 359 1308 360Z"  horiz-adv-x="1480" vert-adv-y="2048"  />

      
      <glyph glyph-name="uni44" unicode="&#x44;" d="M491 212Q734 212 906 384Q993 471 1036 573.50Q1079 676 1079 800Q1079 1042 906 1215Q733 1388 491 1388L289 1388L289 212L491 212M491 1600Q821 1600 1056 1365Q1174 1247 1232.50 1107.50Q1291 968 1291 800Q1291 469 1056 234Q822 0 491 0L183 0Q161 0 141.50 8.50Q122 17 107.50 31Q93 45 84.50 64.50Q76 84 76 106L76 1494Q76 1516 84.50 1535.50Q93 1555 107.50 1569Q122 1583 141.50 1591.50Q161 1600 183 1600L491 1600Z"  horiz-adv-x="1360" vert-adv-y="2048"  />

      
      <glyph glyph-name="uni45" unicode="&#x45;" d="M1107 212Q1151 212 1182 181Q1213 150 1213 106Q1213 62 1182 31Q1151 0 1107 0L182 0Q159 0 140 8Q121 16 106.50 30.50Q92 45 84 64Q76 83 76 106L76 1494Q76 1516 84 1535.50Q92 1555 106.50 1569.50Q121 1584 140 1592Q159 1600 182 1600L1107 1600Q1151 1600 1182 1569Q1213 1538 1213 1494Q1213 1450 1182 1419Q1151 1388 1107 1388L288 1388L288 906L876 906Q920 906 951 875Q982 844 982 800Q982 756 951 725Q920 694 876 694L288 694L288 212L1107 212Z"  horiz-adv-x="1280" vert-adv-y="2048"  />

      
      <glyph glyph-name="uni46" unicode="&#x46;" d="M76 106L76 1494Q76 1516 84 1535.50Q92 1555 106.50 1569.50Q121 1584 140 1592Q159 1600 182 1600L1107 1600Q1151 1600 1182 1569Q1213 1538 1213 1494Q1213 1450 1182 1419Q1151 1388 1107 1388L288 1388L288 906L876 906Q920 906 951 875Q982 844 982 800Q982 756 951 725Q920 694 876 694L288 694L288 106Q288 62 257 31Q226 0 182 0Q138 0 107 31Q76 62 76 106Z"  horiz-adv-x="1280" vert-adv-y="2048"  />

      
      <glyph glyph-name="uni47" unicode="&#x47;" d="M1414 254Q1414 212 1381 178Q1158 0 878 0Q546 0 312 234Q78 468 78 800Q78 1131 312 1365Q547 1600 878 1600Q1162 1600 1391 1413Q1419 1387 1419 1340Q1419 1317 1411 1298Q1403 1279 1388.50 1264.50Q1374 1250 1354.50 1242Q1335 1234 1313 1234Q1272 1234 1240 1264Q1164 1324 1072.50 1356Q981 1388 878 1388Q634 1388 461 1215Q290 1044 290 800Q290 555 461 384Q633 212 878 212Q1059 212 1202 307L1202 617L926 617Q881 617 850.50 647.50Q820 678 820 723Q820 745 828 764.50Q836 784 850.50 798.50Q865 813 884 821Q903 829 926 829L1309 829Q1330 829 1349 820.50Q1368 812 1382.50 797.50Q1397 783 1405.50 763.50Q1414 744 1414 723L1414 254Z"  horiz-adv-x="1500" vert-adv-y="2048"  />

      
      <glyph glyph-name="uni48" unicode="&#x48;" d="M1213 106Q1213 62 1182 31Q1151 0 1107 0Q1063 0 1032 31Q1001 62 1001 106L1001 694L288 694L288 106Q288 62 257 31Q226 0 182 0Q138 0 107 31Q76 62 76 106L76 1494Q76 1538 107 1569Q138 1600 182 1600Q226 1600 257 1569Q288 1538 288 1494L288 906L1001 906L1001 1494Q1001 1538 1032 1569Q1063 1600 1107 1600Q1151 1600 1182 1569Q1213 1538 1213 1494L1213 106Z"  horiz-adv-x="1280" vert-adv-y="2048"  />

      
      <glyph glyph-name="uni49" unicode="&#x49;" d="M358 106Q358 62 327 31Q296 0 252 0Q208 0 177 31Q146 62 146 106L146 1494Q146 1538 177 1569Q208 1600 252 1600Q296 1600 327 1569Q358 1538 358 1494L358 106Z"  horiz-adv-x="480" vert-adv-y="2048"  />

      
      <glyph glyph-name="uni4a" unicode="&#x4a;" d="M286 492Q286 433 308 382Q330 331 367.50 293.50Q405 256 456 234Q507 212 566 212Q624 212 675 234Q726 256 763.50 294Q801 332 823 383Q845 434 845 492L845 1494Q845 1538 876 1569Q907 1600 951 1600Q995 1600 1026 1569Q1057 1538 1057 1494L1057 492Q1057 391 1018 301.50Q979 212 912.50 145Q846 78 756.50 39Q667 0 566 0Q464 0 374.50 39Q285 78 218.50 145.50Q152 213 113 302Q74 391 74 492Q74 536 105 567Q136 598 180 598Q224 598 255 567Q286 536 286 492Z"  horiz-adv-x="1120" vert-adv-y="2048"  />

      
      <glyph glyph-name="uni4b" unicode="&#x4b;" d="M75 1494Q75 1538 106 1569Q137 1600 181 1600Q225 1600 256 1569Q287 1538 287 1494L287 902L952 1567Q985 1600 1029 1600Q1051 1600 1070.50 1592Q1090 1584 1104.50 1569.50Q1119 1555 1127 1535.50Q1135 1516 1135 1494Q1135 1450 1104 1419L580 894L1115 169Q1135 141 1135 109Q1135 88 1127 68Q1119 48 1105 33Q1091 18 1072 9Q1053 0 1031 0Q972 0 942 45L428 742L287 601L287 106Q287 62 256 31Q225 0 181 0Q137 0 106 31Q75 62 75 106L75 1494Z"  horiz-adv-x="1200" vert-adv-y="2048"  />

      
      <glyph glyph-name="uni4c" unicode="&#x4c;" d="M75 1494Q75 1538 106 1569Q137 1600 181 1600Q225 1600 256 1569Q287 1538 287 1494L287 212L1029 212Q1073 212 1104 181Q1135 150 1135 106Q1135 62 1104 31Q1073 0 1029 0L181 0Q158 0 139 8Q120 16 105.50 30.50Q91 45 83 64Q75 83 75 106L75 1494Z"  horiz-adv-x="1200" vert-adv-y="2048"  />

      
      <glyph glyph-name="uni4d" unicode="&#x4d;" d="M80 106L80 1494Q80 1516 88 1535.50Q96 1555 110.50 1569.50Q125 1584 144 1592Q163 1600 186 1600Q248 1600 280 1543L880 344L1480 1543Q1516 1600 1574 1600Q1596 1600 1615.50 1592Q1635 1584 1649.50 1569.50Q1664 1555 1672 1535.50Q1680 1516 1680 1494L1680 106Q1680 62 1649 31Q1618 0 1574 0Q1530 0 1499 31Q1468 62 1468 106L1468 1044L972 53Q941 0 880 0Q814 0 783 64L292 1044L292 106Q292 62 261 31Q230 0 186 0Q142 0 111 31Q80 62 80 106Z"  horiz-adv-x="1760" vert-adv-y="2048"  />

      
      <glyph glyph-name="uni4e" unicode="&#x4e;" d="M77 106L77 1494Q77 1516 85 1535.50Q93 1555 107.50 1569.50Q122 1584 141 1592Q160 1600 183 1600Q230 1600 265 1561L1157 414L1157 1494Q1157 1538 1188 1569Q1219 1600 1263 1600Q1307 1600 1338 1569Q1369 1538 1369 1494L1369 106Q1369 83 1361 64Q1353 45 1338.50 30.50Q1324 16 1304.50 8Q1285 0 1263 0Q1216 0 1182 37L289 1184L289 106Q289 62 258 31Q227 0 183 0Q139 0 108 31Q77 62 77 106Z"  horiz-adv-x="1440" vert-adv-y="2048"  />

      
      <glyph glyph-name="uni4f" unicode="&#x4f;" d="M880 1388Q756 1388 653.50 1345Q551 1302 464 1215Q377 1128 334.50 1026Q292 924 292 800Q292 556 464 384Q636 212 880 212Q1124 212 1296 384Q1468 556 1468 800Q1468 1043 1296 1215Q1123 1388 880 1388M1680 800Q1680 469 1445 234Q1211 0 880 0Q548 0 314 234Q80 468 80 800Q80 1131 314 1365Q549 1600 880 1600Q1210 1600 1445 1365Q1563 1247 1621.50 1107Q1680 967 1680 800Z"  horiz-adv-x="1760" vert-adv-y="2048"  />

      
      <glyph glyph-name="uni50" unicode="&#x50;" d="M286 1388L286 752L488 752Q553 752 610.50 777Q668 802 711.50 845Q755 888 780.50 946Q806 1004 806 1070Q806 1137 780.50 1195Q755 1253 711.50 1296Q668 1339 610 1363.50Q552 1388 488 1388L286 1388M74 106L74 1494Q74 1516 82 1535.50Q90 1555 104.50 1569.50Q119 1584 138 1592Q157 1600 180 1600L488 1600Q560 1600 627.50 1581Q695 1562 754 1527Q813 1492 862 1443.50Q911 1395 945.50 1336Q980 1277 999.50 1209.50Q1019 1142 1019 1070Q1019 852 862 695Q707 540 488 540L286 540L286 106Q286 62 255 31Q224 0 180 0Q136 0 105 31Q74 62 74 106Z"  horiz-adv-x="1080" vert-adv-y="2048"  />

      
      <glyph glyph-name="uni51" unicode="&#x51;" d="M1366 164Q1260 80 1140 40Q1020 0 880 0Q548 0 314 234Q80 468 80 800Q80 1131 314 1365Q549 1600 880 1600Q1210 1600 1445 1365Q1563 1247 1621.50 1107.50Q1680 968 1680 800Q1680 660 1640 540Q1600 420 1516 314L1650 180Q1680 147 1680 106Q1680 83 1672 64Q1664 45 1649.50 30.50Q1635 16 1615.50 8Q1596 0 1574 0Q1528 0 1498 31L1366 164M1074 455Q1044 490 1044 530Q1044 552 1052 571.50Q1060 591 1074.50 605.50Q1089 620 1108 628Q1127 636 1150 636Q1194 636 1225 605L1365 466Q1468 611 1468 800Q1468 1043 1296 1215Q1123 1388 880 1388Q756 1388 653.50 1345Q551 1302 464 1215Q377 1128 334.50 1026Q292 924 292 800Q292 556 464 384Q636 212 880 212Q1069 212 1215 315L1074 455Z"  horiz-adv-x="1760" vert-adv-y="2048"  />

      
      <glyph glyph-name="uni52" unicode="&#x52;" d="M287 1388L287 829L567 829Q625 829 676 851Q727 873 764.50 911.50Q802 950 824 1000.50Q846 1051 846 1108Q846 1166 824 1217Q802 1268 764 1306Q726 1344 675 1366Q624 1388 567 1388L287 1388M75 106L75 1494Q75 1516 83 1535.50Q91 1555 105.50 1569.50Q120 1584 139 1592Q158 1600 181 1600L567 1600Q668 1600 757.50 1561Q847 1522 913.50 1455Q980 1388 1019 1298.50Q1058 1209 1058 1108Q1058 1042 1041.50 979.50Q1025 917 992.50 861.50Q960 806 911.50 758.50Q863 711 799 675L1118 164Q1135 136 1135 106Q1135 83 1127 64Q1119 45 1104.50 30.50Q1090 16 1070.50 8Q1051 0 1029 0Q973 0 938 52L585 617L287 617L287 106Q287 62 256 31Q225 0 181 0Q137 0 106 31Q75 62 75 106Z"  horiz-adv-x="1200" vert-adv-y="2048"  />

      
      <glyph glyph-name="uni53" unicode="&#x53;" d="M502 779Q357 822 283 890Q209 958 179.50 1029.50Q150 1101 150 1181Q150 1279 187 1358.50Q224 1438 296 1500L295 1500Q410 1600 565 1600Q615 1600 665 1587.50Q715 1575 761.50 1549.50Q808 1524 848.50 1486Q889 1448 921 1397Q936 1371 936 1340Q936 1317 928 1298Q920 1279 905.50 1264.50Q891 1250 871.50 1242Q852 1234 830 1234Q810 1234 794.50 1240Q779 1246 766.50 1257Q754 1268 742.50 1282.50Q731 1297 718 1316Q694 1351 652.50 1368.50Q611 1386 563 1386Q525 1386 489 1370.50Q453 1355 425 1328Q397 1301 379.50 1264Q362 1227 362 1184Q362 1107 404.50 1062.50Q447 1018 551 988Q727 938 827 850Q927 762 963 677Q999 592 999 498Q999 264 826 118L827 118Q688 0 511 0Q452 0 393 14.50Q334 29 279.50 57Q225 85 177.50 127Q130 169 95 222Q74 249 74 286Q74 308 82 327.50Q90 347 104.50 361.50Q119 376 138 384Q157 392 180 392Q239 392 269 343Q311 278 374 245Q437 212 510 212Q567 212 617.50 234.50Q668 257 705.50 295Q743 333 765 384.50Q787 436 787 494Q787 549 766.50 597.50Q746 646 687.50 693.50Q629 741 502 779Z"  horiz-adv-x="1060" vert-adv-y="2048"  />

      
      <glyph glyph-name="uni54" unicode="&#x54;" d="M1185 1388L790 1388L790 106Q790 62 759 31Q728 0 684 0Q640 0 609 31Q578 62 578 106L578 1388L183 1388Q139 1388 108 1419Q77 1450 77 1494Q77 1538 108 1569Q139 1600 183 1600L1185 1600Q1229 1600 1260 1569Q1291 1538 1291 1494Q1291 1450 1260 1419Q1229 1388 1185 1388Z"  horiz-adv-x="1360" vert-adv-y="2048"  />

      
      <glyph glyph-name="uni55" unicode="&#x55;" d="M288 1494L288 569Q288 496 316 431Q344 366 392 317.50Q440 269 505 240.50Q570 212 644 212Q718 212 783 240Q848 268 896.50 317Q945 366 973 430.50Q1001 495 1001 569L1001 1494Q1001 1538 1032 1569Q1063 1600 1107 1600Q1151 1600 1182 1569Q1213 1538 1213 1494L1213 569Q1213 491 1192.50 419Q1172 347 1135 283.50Q1098 220 1046 168Q994 116 930.50 78.50Q867 41 794.50 20.50Q722 0 644 0Q408 0 243 167Q76 334 76 569L76 1494Q76 1538 107 1569Q138 1600 182 1600Q226 1600 257 1569Q288 1538 288 1494Z"  horiz-adv-x="1280" vert-adv-y="2048"  />

      
      <glyph glyph-name="uni56" unicode="&#x56;" d="M723 0Q653 0 626 67L89 1440Q77 1471 77 1494Q77 1516 85 1535.50Q93 1555 107.50 1569.50Q122 1584 141 1592Q160 1600 183 1600Q253 1600 281 1537L723 400L1165 1537Q1189 1600 1263 1600Q1285 1600 1304.50 1592Q1324 1584 1338.50 1569.50Q1353 1555 1361 1535.50Q1369 1516 1369 1494Q1369 1468 1357 1440L820 67Q793 0 723 0Z"  horiz-adv-x="1440" vert-adv-y="2048"  />

      
      <glyph glyph-name="uni57" unicode="&#x57;" d="M288 1529L573 502L857 1528Q865 1559 893.50 1579.50Q922 1600 959 1600Q991 1600 1019.50 1581.50Q1048 1563 1059 1529L1344 502L1630 1529Q1637 1551 1655 1569Q1686 1600 1730 1600Q1774 1600 1804.50 1569Q1835 1538 1835 1494Q1834 1474 1828 1452L1451 86Q1437 47 1409 23.50Q1381 0 1344 0Q1299 0 1270 32Q1249 54 1238 84L959 1095L680 86Q666 47 638 23.50Q610 0 573 0Q528 0 498 32Q478 52 467 84L88 1453Q82 1476 82 1494Q82 1538 113 1569Q144 1600 188 1600Q232 1600 263 1569Q280 1551 288 1529Z"  horiz-adv-x="1920" vert-adv-y="2048"  />

      
      <glyph glyph-name="uni58" unicode="&#x58;" d="M257 31Q226 0 182 0Q138 0 107 30.50Q76 61 76 105Q76 143 99 172L588 800L96 1432Q77 1459 77 1494Q77 1538 108 1569Q139 1600 183 1600Q231 1600 258 1569L723 973L1188 1569Q1216 1600 1263 1600Q1307 1600 1337.50 1569Q1368 1538 1368 1494Q1368 1459 1349 1432L858 800L1347 172Q1369 143 1369 105Q1369 61 1338.50 30.50Q1308 0 1264 0Q1211 0 1181 38L723 627L257 31Z"  horiz-adv-x="1440" vert-adv-y="2048"  />

      
      <glyph glyph-name="uni59" unicode="&#x59;" d="M268 1556L644 993L1020 1556Q1051 1600 1107 1600Q1151 1600 1181.50 1569Q1212 1538 1212 1494Q1212 1458 1196 1434L750 768L750 106Q750 62 719 31Q688 0 644 0Q601 0 569.50 31Q538 62 538 106L538 768L93 1434Q76 1460 76 1494Q76 1538 107 1569Q138 1600 182 1600Q238 1600 268 1556Z"  horiz-adv-x="1280" vert-adv-y="2048"  />

      
      <glyph glyph-name="uni5a" unicode="&#x5a;" d="M183 1600L1263 1600Q1285 1600 1304.50 1592Q1324 1584 1338.50 1569.50Q1353 1555 1361 1535.50Q1369 1516 1369 1494Q1369 1461 1349 1432L400 212L1263 212Q1308 211 1338.50 180Q1369 149 1369 105Q1369 61 1338.50 30.50Q1308 0 1264 0L183 0Q160 0 141 8Q122 16 107.50 30.50Q93 45 85 64Q77 83 77 106Q78 144 99 172L1046 1388L183 1388Q140 1388 108.50 1419Q77 1450 77 1494Q77 1538 108.50 1569Q140 1600 183 1600Z"  horiz-adv-x="1440" vert-adv-y="2048"  />

      
      <glyph glyph-name="uni5b" unicode="&#x5b;" d="M494 1602Q540 1602 570.50 1570.50Q601 1539 601 1494Q601 1448 570.50 1418Q540 1388 494 1388L289 1388L289-266L494-266Q540-266 570.50-296Q601-326 601-372Q601-419 570.50-449.50Q540-480 494-480L183-480Q136-480 106-449.50Q76-419 76-372L76 1494Q76 1539 106 1570.50Q136 1602 183 1602L494 1602Z"  horiz-adv-x="640" vert-adv-y="2048"  />

      
      <glyph glyph-name="uni5c" unicode="&#x5c;" d="M883-12Q892-31 892-55Q892-77 884-96.50Q876-116 861.50-131Q847-146 827.50-154Q808-162 786-162Q758-162 729.50-146Q701-130 688-99L68 1450Q60 1472 60 1494Q60 1539 90 1570Q120 1601 166 1601Q238 1601 264 1538L883-12Z"  horiz-adv-x="960" vert-adv-y="2048"  />

      
      <glyph glyph-name="uni5d" unicode="&#x5d;" d="M494 1602Q540 1602 570.50 1570.50Q601 1539 601 1494L601-372Q601-419 570.50-449.50Q540-480 494-480L183-480Q136-480 106-449.50Q76-419 76-372Q76-326 106-296Q136-266 183-266L387-266L387 1388L183 1388Q136 1388 106 1418Q76 1448 76 1494Q76 1539 106 1570.50Q136 1602 183 1602L494 1602Z"  horiz-adv-x="640" vert-adv-y="2048"  />

      
      <glyph glyph-name="uni5e" unicode="&#x5e;" d="M484 1304L264 975Q232 934 180 934Q135 934 105.50 964Q76 994 76 1039Q76 1072 90 1093L398 1555Q427 1599 484 1599Q537 1599 569 1555L877 1093Q892 1071 892 1039Q892 1017 884 998Q876 979 861.50 964.50Q847 950 828 942Q809 934 788 934Q735 934 703 975L484 1304Z"  horiz-adv-x="960" vert-adv-y="2048"  />

      
      <glyph glyph-name="uni5f" unicode="&#x5f;" d="M976-209L16-209Q-28-209-58.50-178.50Q-89-148-89-105Q-89-61-58.50-30.50Q-28 0 16 0L976 0Q1019 0 1049.50-30.50Q1080-61 1080-105Q1080-148 1049.50-178.50Q1019-209 976-209Z"  horiz-adv-x="960" vert-adv-y="2048"  />

      
      <glyph glyph-name="uni60" unicode="&#x60;" d="M71 1494Q71 1538 100.50 1568.50Q130 1599 175 1599Q217 1599 249 1568L449 1369Q475 1341 475 1298Q475 1253 445.50 1223.50Q416 1194 371 1194Q327 1194 299 1222L99 1421Q71 1449 71 1494Z"  horiz-adv-x="560" vert-adv-y="2048"  />

      
      <glyph glyph-name="uni61" unicode="&#x61;" d="M640 911Q566 911 502 883Q438 855 391 807.50Q344 760 316.50 696Q289 632 289 560Q289 488 316.50 424Q344 360 391 312.50Q438 265 502 237Q566 209 640 209Q713 209 777 237Q841 265 888.50 313Q936 361 963.50 424.50Q991 488 991 560Q991 632 963.50 695.50Q936 759 888.50 807Q841 855 777 883Q713 911 640 911M991 104L991 124Q916 64 828 32Q740 0 640 0Q408 0 244 164Q80 328 80 560Q80 792 244 956Q408 1120 640 1120Q870 1120 1036 956Q1200 792 1200 560L1200 104Q1200 61 1169.50 30.50Q1139 0 1096 0Q1052 0 1021.50 30.50Q991 61 991 104Z"  horiz-adv-x="1280" vert-adv-y="2048"  />

      
      <glyph glyph-name="uni62" unicode="&#x62;" d="M640 209Q713 209 777 237Q841 265 888.50 313Q936 361 963.50 424.50Q991 488 991 560Q991 632 963.50 695.50Q936 759 888.50 807Q841 855 777 883Q713 911 640 911Q566 911 502 883Q438 855 391 807.50Q344 760 316.50 696Q289 632 289 560Q289 488 316.50 424Q344 360 391 312.50Q438 265 502 237Q566 209 640 209M289 996Q438 1120 640 1120Q870 1120 1036 956Q1118 875 1159 775.50Q1200 676 1200 560Q1200 326 1036 164Q870 0 640 0Q408 0 244 164Q80 328 80 560L80 1496Q80 1541 109.50 1570.50Q139 1600 184 1600Q228 1600 258.50 1570.50Q289 1541 289 1496L289 996Z"  horiz-adv-x="1280" vert-adv-y="2048"  />

      
      <glyph glyph-name="uni63" unicode="&#x63;" d="M932 317Q977 317 1006.50 287.50Q1036 258 1036 213Q1036 169 1003 136Q848 0 638 0Q406 0 242 164Q78 328 78 560Q78 792 242 956Q406 1120 638 1120Q849 1120 1003 984Q1039 952 1039 905Q1039 860 1009.50 830Q980 800 935 800Q897 800 867 824Q816 867 760 889Q704 911 638 911Q565 911 501 883.50Q437 856 389 808.50Q341 761 313.50 697Q286 633 286 560Q286 487 313.50 423Q341 359 389 311.50Q437 264 501 236.50Q565 209 638 209Q704 209 760 230.50Q816 252 866 295Q894 316 932 317Z"  horiz-adv-x="1120" vert-adv-y="2048"  />

      
      <glyph glyph-name="uni64" unicode="&#x64;" d="M991 560Q991 632 963.50 695.50Q936 759 888.50 807Q841 855 777 883Q713 911 640 911Q566 911 502 883Q438 855 391 807.50Q344 760 316.50 696Q289 632 289 560Q289 488 316.50 424Q344 360 391 312.50Q438 265 502 237Q566 209 640 209Q713 209 777 237Q841 265 888.50 313Q936 361 963.50 424.50Q991 488 991 560M640 1120Q839 1120 991 997L991 1496Q991 1541 1020.50 1570.50Q1050 1600 1095 1600Q1139 1600 1169.50 1570.50Q1200 1541 1200 1496L1200 560Q1200 326 1036 164Q870 0 640 0Q408 0 244 164Q80 328 80 560Q80 792 244 956Q408 1120 640 1120Z"  horiz-adv-x="1280" vert-adv-y="2048"  />

      
      <glyph glyph-name="uni65" unicode="&#x65;" d="M977 664Q960 719 926.50 764.50Q893 810 848.50 842.50Q804 875 750.50 893Q697 911 640 911Q583 911 529 893Q475 875 430 842.50Q385 810 352 764.50Q319 719 303 664L977 664M932 315Q977 315 1006.50 285.50Q1036 256 1036 211Q1036 167 1006 136Q851 0 640 0Q408 0 244 164Q80 328 80 560Q80 792 244 956Q408 1120 640 1120Q870 1120 1036 956Q1118 875 1159 775.50Q1200 676 1200 560Q1200 515 1169.50 485.50Q1139 456 1095 456L303 456Q320 401 353 355.50Q386 310 430.50 277.50Q475 245 528.50 227Q582 209 640 209Q706 209 761 229Q816 249 863 289Q893 314 932 315Z"  horiz-adv-x="1280" vert-adv-y="2048"  />

      
      <glyph glyph-name="uni66" unicode="&#x66;" d="M701 1390Q425 1390 425 1115L425 1063L626 1063Q669 1063 699.50 1032.50Q730 1002 730 959Q730 915 699.50 884.50Q669 854 626 854L425 854L425 104Q425 83 417 64Q409 45 395 30.50Q381 16 362 8Q343 0 321 0Q299 0 280 8Q261 16 247 30.50Q233 45 225 64Q217 83 217 104L217 854L169 854Q124 854 94.50 884Q65 914 65 959Q65 1004 94.50 1033.50Q124 1063 169 1063L217 1063L217 1115Q217 1599 701 1599Q744 1599 774.50 1568.50Q805 1538 805 1495Q805 1451 774.50 1420.50Q744 1390 701 1390Z"  horiz-adv-x="800" vert-adv-y="2048"  />

      
      <glyph glyph-name="uni67" unicode="&#x67;" d="M640 911Q566 911 502 883Q438 855 391 807.50Q344 760 316.50 696Q289 632 289 560Q289 488 316.50 424Q344 360 391 312.50Q438 265 502 237Q566 209 640 209Q713 209 777 237Q841 265 888.50 313Q936 361 963.50 424.50Q991 488 991 560Q991 632 963.50 695.50Q936 759 888.50 807Q841 855 777 883Q713 911 640 911M991 123Q841 0 640 0Q408 0 244 164Q80 328 80 560Q80 792 244 956Q408 1120 640 1120Q870 1120 1036 956Q1200 792 1200 560L1200 4Q1200-68 1178-132Q1156-196 1117-249.50Q1078-303 1025-346Q972-389 910.50-418.50Q849-448 782-464Q715-480 648-480Q568-480 491-459.50Q414-439 345-399Q276-359 218.50-300Q161-241 121-168Q105-145 105-112Q105-67 135-37.50Q165-8 210-8Q240-8 259.50-22Q279-36 313-84Q347-132 373-157Q487-271 648-271Q810-271 922-159Q991-75 991 4L991 123Z"  horiz-adv-x="1280" vert-adv-y="2048"  />

      
      <glyph glyph-name="uni68" unicode="&#x68;" d="M288 105Q288 61 257.50 30.50Q227 0 183 0Q140 0 109.50 30.50Q79 61 79 105L79 1495Q79 1539 109.50 1569.50Q140 1600 183 1600Q226 1600 256.50 1569.50Q287 1539 288 1495L288 1015Q421 1118 601 1118Q706 1118 800.50 1077Q895 1036 967 965.50Q1039 895 1081 799.50Q1123 704 1123 596L1123 105Q1122 61 1091.50 30.50Q1061 0 1018 0Q975 0 944.50 30.50Q914 61 914 105L914 596Q914 660 889 717Q864 774 821.50 816.50Q779 859 722 884Q665 909 601 909Q536 909 479.50 884.50Q423 860 380 817Q337 774 312.50 717Q288 660 288 596L288 105Z"  horiz-adv-x="1200" vert-adv-y="2048"  />

      
      <glyph glyph-name="uni69" unicode="&#x69;" d="M363 1319Q363 1268 327 1232Q291 1196 240 1196Q189 1196 153 1232Q117 1268 117 1319Q117 1370 153 1406Q189 1442 240 1442Q291 1442 327 1406Q363 1370 363 1319M136 105L136 1015Q136 1059 166.50 1089.50Q197 1120 240 1120Q283 1120 313.50 1089.50Q344 1059 345 1015L345 105Q344 61 313.50 30.50Q283 0 240 0Q197 0 166.50 30.50Q136 61 136 105Z"  horiz-adv-x="480" vert-adv-y="2048"  />

      
      <glyph glyph-name="uni6a" unicode="&#x6a;" d="M602 1319Q602 1268 566 1232Q530 1196 479 1196Q428 1196 392 1232Q356 1268 356 1319Q356 1370 392 1406Q428 1442 479 1442Q530 1442 566 1406Q602 1370 602 1319M583 1015L583 5Q583-94 544.50-182Q506-270 440-336Q374-402 286-440.50Q198-479 99-479Q54-479 24.50-449Q-5-419-5-374Q-5-329 24.50-299.50Q54-270 99-270Q156-270 206-248.50Q256-227 293.50-189.50Q331-152 353-102Q375-52 375 5L375 1015Q375 1059 405.50 1089.50Q436 1120 479 1120Q522 1120 552.50 1089.50Q583 1059 583 1015Z"  horiz-adv-x="656" vert-adv-y="2048"  />

      
      <glyph glyph-name="uni6b" unicode="&#x6b;" d="M78 105L78 1495Q78 1539 108.50 1569.50Q139 1600 183 1600Q226 1600 256.50 1569.50Q287 1539 287 1495L287 715L885 1104Q910 1120 941 1120Q963 1120 982 1112Q1001 1104 1015 1089.50Q1029 1075 1037.50 1056Q1046 1037 1046 1016Q1046 960 1006 933L587 661L1017 177Q1046 145 1046 104Q1046 83 1037.50 64Q1029 45 1015 30.50Q1001 16 982 8Q963 0 941 0Q899 0 871 27L409 546L287 466L287 105Q287 62 256.50 31Q226 0 183 0Q139 0 108.50 31Q78 62 78 105Z"  horiz-adv-x="1120" vert-adv-y="2048"  />

      
      <glyph glyph-name="uni6c" unicode="&#x6c;" d="M70 104L70 1495Q70 1539 99.50 1569.50Q129 1600 174 1600Q219 1600 248.50 1569.50Q278 1539 278 1495L278 209L326 209Q369 209 399.50 178.50Q430 148 430 104Q430 61 399.50 30.50Q369 0 326 0L173 0Q130 0 100 30.50Q70 61 70 104Z"  horiz-adv-x="480" vert-adv-y="2048"  />

      
      <glyph glyph-name="uni6d" unicode="&#x6d;" d="M1661 105Q1661 61 1630.50 30.50Q1600 0 1557 0Q1513 0 1483 30.50Q1453 61 1453 105L1453 674Q1453 722 1434.50 765Q1416 808 1384 840.50Q1352 873 1308.50 892Q1265 911 1215 911Q1166 911 1123 892Q1080 873 1047.50 841Q1015 809 996.50 766Q978 723 978 674L978 105Q978 61 947.50 30.50Q917 0 874 0Q830 0 799.50 30.50Q769 61 769 105L769 674Q769 723 750 766Q731 809 699 841Q667 873 624 892Q581 911 532 911Q483 911 440 892.50Q397 874 364.50 841.50Q332 809 313.50 766Q295 723 295 674L295 105Q295 61 264.50 30.50Q234 0 191 0Q147 0 116.50 30.50Q86 61 86 105L86 1016Q86 1059 116.50 1089.50Q147 1120 190 1120Q225 1120 252 1100.50Q279 1081 289 1049Q396 1120 532 1120Q632 1120 720 1080.50Q808 1041 874 961Q1013 1120 1215 1120Q1306 1120 1387.50 1084.50Q1469 1049 1529.50 988.50Q1590 928 1625.50 846.50Q1661 765 1661 674L1661 105Z"  horiz-adv-x="1760" vert-adv-y="2048"  />

      
      <glyph glyph-name="uni6e" unicode="&#x6e;" d="M288 1017Q421 1120 601 1120Q706 1120 800.50 1079Q895 1038 967 967.50Q1039 897 1081 801.50Q1123 706 1123 598L1123 105Q1123 61 1092.50 30.50Q1062 0 1019 0Q975 0 944.50 30.50Q914 61 914 105L914 598Q914 662 889 719Q864 776 821.50 818.50Q779 861 722 886Q665 911 601 911Q536 911 479.50 886.50Q423 862 380 819Q337 776 312.50 719Q288 662 288 598L288 105Q288 61 257.50 30.50Q227 0 184 0Q140 0 109.50 30.50Q79 61 79 105L79 1015Q79 1058 109.50 1089Q140 1120 184 1120Q227 1120 257.50 1089Q288 1058 288 1017Z"  horiz-adv-x="1200" vert-adv-y="2048"  />

      
      <glyph glyph-name="uni6f" unicode="&#x6f;" d="M1200 560Q1200 326 1036 164Q870 0 640 0Q408 0 244 164Q80 328 80 560Q80 792 244 956Q408 1120 640 1120Q870 1120 1036 956Q1118 874 1158.50 775Q1199 676 1200 560M640 911Q566 911 502 883Q438 855 391 807.50Q344 760 316.50 696Q289 632 289 560Q289 488 316.50 424Q344 360 391 312.50Q438 265 502 237Q566 209 640 209Q713 209 777 237Q841 265 888.50 313Q936 361 963.50 424.50Q991 488 991 560Q991 632 963.50 695.50Q936 759 888.50 807Q841 855 777 883Q713 911 640 911Z"  horiz-adv-x="1280" vert-adv-y="2048"  />

      
      <glyph glyph-name="uni70" unicode="&#x70;" d="M289 560Q289 488 316.50 424Q344 360 391 312.50Q438 265 502 237Q566 209 640 209Q713 209 777 237Q841 265 888.50 313Q936 361 963.50 424.50Q991 488 991 560Q991 632 963.50 695.50Q936 759 888.50 807Q841 855 777 883Q713 911 640 911Q566 911 502 883Q438 855 391 807.50Q344 760 316.50 696Q289 632 289 560M640 0Q439 0 289 123L289-376Q289-421 258.50-450.50Q228-480 184-480Q139-480 109.50-450.50Q80-421 80-376L80 560Q80 792 244 956Q408 1120 640 1120Q870 1120 1036 956Q1118 875 1159 775.50Q1200 676 1200 560Q1200 326 1036 164Q952 81 853.50 40.50Q755 0 640 0Z"  horiz-adv-x="1280" vert-adv-y="2048"  />

      
      <glyph glyph-name="uni71" unicode="&#x71;" d="M640 911Q566 911 502 883Q438 855 391 807.50Q344 760 316.50 696Q289 632 289 560Q289 488 316.50 424Q344 360 391 312.50Q438 265 502 237Q566 209 640 209Q713 209 777 237Q841 265 888.50 313Q936 361 963.50 424.50Q991 488 991 560Q991 632 963.50 695.50Q936 759 888.50 807Q841 855 777 883Q713 911 640 911M991 123Q841 0 640 0Q408 0 244 164Q80 328 80 560Q80 792 244 956Q408 1120 640 1120Q870 1120 1036 956Q1200 792 1200 560L1200-376Q1200-421 1169.50-450.50Q1139-480 1095-480Q1050-480 1020.50-450.50Q991-421 991-376L991 123Z"  horiz-adv-x="1280" vert-adv-y="2048"  />

      
      <glyph glyph-name="uni72" unicode="&#x72;" d="M285 1016L285 996Q360 1056 448 1088Q536 1120 636 1120Q680 1120 730.50 1114Q781 1108 823.50 1092.50Q866 1077 894 1050Q922 1023 922 980Q922 958 913.50 939Q905 920 891 905.50Q877 891 858 883Q839 875 817 875Q798 875 773 886Q710 911 636 911Q563 911 499 883.50Q435 856 387.50 808.50Q340 761 312.50 697Q285 633 285 560L285 104Q285 61 254.50 30.50Q224 0 181 0Q137 0 106.50 30.50Q76 61 76 104L76 1016Q76 1059 106.50 1089.50Q137 1120 181 1120Q224 1120 254.50 1089.50Q285 1059 285 1016Z"  horiz-adv-x="960" vert-adv-y="2048"  />

      
      <glyph glyph-name="uni73" unicode="&#x73;" d="M284 533Q190 569 152 607L153 607Q77 684 77 788Q77 864 117.50 925.50Q158 987 223 1030Q288 1073 369.50 1096.50Q451 1120 533 1120Q783 1120 962 919Q983 893 983 856Q983 811 953.50 781.50Q924 752 879 752Q847 752 824.50 770Q802 788 781 809Q679 911 533 911Q389 911 303 823Q287 807 287 779Q287 751 313 741L781 587Q879 549 913 513L912 513Q988 436 988 332Q988 255 947.50 194Q907 133 842 89.50Q777 46 696 23Q615 0 533 0Q281 0 104 199Q82 228 82 264Q82 309 111.50 338.50Q141 368 186 368Q219 368 242 348.50Q265 329 284 311Q386 209 533 209Q676 209 763 299Q778 316 778 340Q778 368 751 379L284 533Z"  horiz-adv-x="1060" vert-adv-y="2048"  />

      
      <glyph glyph-name="uni74" unicode="&#x74;" d="M178 1120L225 1120L225 1496Q225 1539 255.50 1569.50Q286 1600 330 1600Q373 1600 403.50 1569.50Q434 1539 434 1496L434 1120L559 1120Q602 1120 632 1089.50Q662 1059 662 1016Q662 972 632 941.50Q602 911 559 911L434 911L434 408Q434 209 634 209Q677 209 707 178.50Q737 148 737 105Q737 61 707 30.50Q677 0 634 0Q225 0 225 408L225 911L178 911Q136 911 105.50 941.50Q75 972 75 1016Q75 1059 105.50 1089.50Q136 1120 178 1120Z"  horiz-adv-x="800" vert-adv-y="2048"  />

      
      <glyph glyph-name="uni75" unicode="&#x75;" d="M1018 0Q973 0 944 30Q915 60 914 103Q845 49 768 24.50Q691 0 601 0Q494 0 399 41.50Q304 83 233 154Q162 225 120.50 320Q79 415 79 522L79 1016Q79 1059 109.50 1089.50Q140 1120 184 1120Q227 1120 257.50 1089.50Q288 1059 288 1016L288 522Q288 457 312.50 400Q337 343 379.50 300.50Q422 258 479 233.50Q536 209 601 209Q665 209 722 233.50Q779 258 822 301Q865 344 889.50 400.50Q914 457 914 522L914 1016Q914 1059 944.50 1089.50Q975 1120 1019 1120Q1062 1120 1092.50 1089.50Q1123 1059 1123 1016L1123 104Q1123 61 1092.50 30.50Q1062 0 1018 0Z"  horiz-adv-x="1200" vert-adv-y="2048"  />

      
      <glyph glyph-name="uni76" unicode="&#x76;" d="M601 0Q535 0 509 56L87 974Q79 995 79 1016Q79 1037 87 1056Q95 1075 109 1089.50Q123 1104 142 1112Q161 1120 183 1120Q210 1120 235 1106.50Q260 1093 274 1068L601 355L927 1067Q956 1120 1018 1120Q1040 1120 1059 1112Q1078 1104 1092 1089.50Q1106 1075 1114.50 1056Q1123 1037 1123 1016Q1123 993 1114 974L693 56Q665 0 601 0Z"  horiz-adv-x="1200" vert-adv-y="2048"  />

      
      <glyph glyph-name="uni77" unicode="&#x77;" d="M796 1120Q870 1120 896 1043L1099 434L1309 1062Q1317 1088 1341 1104Q1365 1120 1403 1120Q1425 1120 1444 1112Q1463 1104 1477 1089.50Q1491 1075 1499.50 1056Q1508 1037 1508 1016Q1508 997 1500 976L1197 67Q1188 38 1164 19Q1140 0 1099 0Q1064 0 1037 20Q1010 40 1002 67L796 685L590 67Q581 38 554 19Q527 0 492 0Q457 0 430.50 19Q404 38 394 67L91 976Q84 998 84 1016Q84 1037 92 1056Q100 1075 114 1089.50Q128 1104 147 1112Q166 1120 188 1120Q224 1120 248.50 1103Q273 1086 282 1062L492 435L695 1043Q721 1120 796 1120Z"  horiz-adv-x="1600" vert-adv-y="2048"  />

      
      <glyph glyph-name="uni78" unicode="&#x78;" d="M426 561L102 947Q78 974 78 1016Q78 1037 86 1056Q94 1075 108 1089.50Q122 1104 141 1112Q160 1120 182 1120Q229 1120 260 1086L562 725L864 1086Q894 1120 941 1120Q963 1120 982 1112Q1001 1104 1015 1089.50Q1029 1075 1037.50 1056Q1046 1037 1046 1016Q1046 978 1021 947L697 561L1024 169Q1046 144 1046 104Q1046 83 1037.50 64Q1029 45 1015 30.50Q1001 16 982 8Q963 0 941 0Q898 0 866 32L562 398L256 32Q226 0 182 0Q160 0 141 8Q122 16 108 30.50Q94 45 86 64Q78 83 78 104Q78 143 99 169L426 561Z"  horiz-adv-x="1120" vert-adv-y="2048"  />

      
      <glyph glyph-name="uni79" unicode="&#x79;" d="M448 104L88 969Q78 992 78 1016Q78 1037 86 1056Q94 1075 108 1089.50Q122 1104 141 1112Q160 1120 182 1120Q213 1120 240 1102.50Q267 1085 281 1051L562 380L843 1053Q855 1083 877.50 1101.50Q900 1120 941 1120Q963 1120 982 1112Q1001 1104 1015 1089.50Q1029 1075 1037.50 1056Q1046 1037 1046 1016Q1046 994 1035 969L460-410Q447-441 420-460.50Q393-480 361-480Q316-480 286.50-450Q257-420 257-375Q257-351 267-329L448 104Z"  horiz-adv-x="1120" vert-adv-y="2048"  />

      
      <glyph glyph-name="uni7a" unicode="&#x7a;" d="M941 0L182 0Q160 0 141 8Q122 16 108 30.50Q94 45 86 64Q78 83 78 104Q78 141 99 169L718 911L182 911Q140 911 109.50 941.50Q79 972 79 1016Q79 1059 109.50 1089.50Q140 1120 182 1120L941 1120Q963 1120 982 1112Q1001 1104 1015 1089.50Q1029 1075 1037.50 1056Q1046 1037 1046 1016Q1046 975 1021 947L403 209L941 209Q984 209 1014 178.50Q1044 148 1044 105Q1044 61 1014 30.50Q984 0 941 0Z"  horiz-adv-x="1120" vert-adv-y="2048"  />

      
      <glyph glyph-name="uni7b" unicode="&#x7b;" d="M634 1599Q679 1599 708.50 1568.50Q738 1538 738 1494Q738 1449 708.50 1419.50Q679 1390 634 1390Q510 1390 510 1266L510 788Q510 644 444 560Q510 476 510 332L510-146Q510-270 634-270Q679-270 708.50-299.50Q738-329 738-374Q738-419 708.50-449Q679-479 634-479Q301-479 301-146L301 332Q301 456 178 456Q133 456 103.50 485.50Q74 515 74 560Q74 605 103.50 634.50Q133 664 178 664Q301 664 301 788L301 1266Q301 1599 634 1599Z"  horiz-adv-x="800" vert-adv-y="2048"  />

      
      <glyph glyph-name="uni7c" unicode="&#x7c;" d="M510 1495L510-375Q510-420 480.50-450Q451-480 406-480Q361-480 331-450Q301-420 301-375L301 1495Q301 1540 331 1570Q361 1600 406 1600Q451 1600 480.50 1570Q510 1540 510 1495Z"  horiz-adv-x="800" vert-adv-y="2048"  />

      
      <glyph glyph-name="uni7d" unicode="&#x7d;" d="M511 1266L511 788Q511 664 634 664Q679 664 708.50 634.50Q738 605 738 560Q738 515 708.50 485.50Q679 456 634 456Q511 456 511 332L511-146Q511-479 178-479Q133-479 103.50-449Q74-419 74-374Q74-329 103.50-299.50Q133-270 178-270Q302-270 302-146L302 332Q302 476 368 560Q302 644 302 788L302 1266Q302 1390 178 1390Q133 1390 103.50 1419.50Q74 1449 74 1494Q74 1538 103.50 1568.50Q133 1599 178 1599Q511 1599 511 1266Z"  horiz-adv-x="800" vert-adv-y="2048"  />

      
      <glyph glyph-name="uni7e" unicode="&#x7e;" d="M332 576Q294 576 248 587Q202 598 161.50 620Q121 642 94 673.50Q67 705 67 747Q68 794 98 822.50Q128 851 171 851Q207 851 252 818Q297 785 336 785Q379 785 409 812Q496 894 628 894Q665 894 711.50 882.50Q758 871 798 849Q838 827 865.50 795Q893 763 893 723Q893 678 862.50 648.50Q832 619 788 619Q756 619 708.50 652Q661 685 625 685Q584 685 551 658Q461 576 332 576Z"  horiz-adv-x="960" vert-adv-y="2048"  />

      
      <glyph glyph-name="unia1" unicode="&#xa1;" d="M211 835Q182 835 156 846.50Q130 858 110.50 877.50Q91 897 80 923Q69 949 69 978Q69 1008 80.50 1034Q92 1060 111.50 1079Q131 1098 156.50 1109Q182 1120 211 1120Q239 1120 265 1109Q291 1098 310.50 1079Q330 1060 341.50 1034Q353 1008 353 978Q353 949 342 923Q331 897 311.50 877.50Q292 858 266 846.50Q240 835 211 835M107 670Q107 691 115 709.50Q123 728 137 742Q151 756 170 764.50Q189 773 211 773Q232 773 251 765Q270 757 284 743Q298 729 306.50 710Q315 691 315 670L315-374Q315-418 285.50-448.50Q256-479 211-479Q166-479 136.50-448.50Q107-418 107-374L107 670Z"  horiz-adv-x="400" vert-adv-y="2048"  />

      
      <glyph glyph-name="unia2" unicode="&#xa2;" d="M587 906Q522 895 468 863Q414 831 375 784.50Q336 738 314.50 680.50Q293 623 293 560Q293 497 310 446Q327 395 363 347L587 906M539 223Q593 209 644 209Q710 209 766.50 230.50Q823 252 873 295Q887 306 904 311.50Q921 317 939 317Q984 317 1013.50 287.50Q1043 258 1043 213Q1043 169 1010 136Q853 0 644 0Q545 0 462 28L356-237Q344-264 317.50-284Q291-304 259-304Q237-304 218-295.50Q199-287 184.50-272Q170-257 162-238Q154-219 154-198Q154-179 161-160L279 135Q264 149 249 164Q84 327 84 560Q84 675 128.50 776.50Q173 878 249.50 954.50Q326 1031 427.50 1075.50Q529 1120 644 1120L672 1120L768 1358Q784 1399 825 1416Q844 1424 866 1424Q888 1424 907 1415.50Q926 1407 940 1392.50Q954 1378 962 1359Q970 1340 970 1319Q970 1304 962 1281L879 1071Q937 1040 991.50 1000Q1046 960 1046 905Q1046 883 1037.50 864Q1029 845 1015 830.50Q1001 816 982 808Q963 800 941 800Q903 800 872 825.50Q841 851 801 875L539 223Z"  horiz-adv-x="1120" vert-adv-y="2048"  />

      
      <glyph glyph-name="unia3" unicode="&#xa3;" d="M260 0Q208 0 181 30Q154 60 154 105Q154 131 161 147Q265 390 269 615L182 615Q137 615 107 645.50Q77 676 77 722Q77 768 107 797.50Q137 827 182 827L248 827Q226 929 185 1028Q154 1101 154 1183Q154 1269 187 1345Q220 1421 276.50 1477Q333 1533 408 1565.50Q483 1598 568 1598Q675 1598 759.50 1552Q844 1506 913 1414Q933 1385 933 1350Q933 1304 903 1273.50Q873 1243 827 1243Q788 1243 763.50 1270.50Q739 1298 711 1327Q652 1386 568 1386Q526 1386 489 1370Q452 1354 424.50 1326.50Q397 1299 381 1262Q365 1225 365 1183Q365 1148 382 1108Q412 1038 432 969Q452 900 464 827L722 827Q768 827 797.50 797.50Q827 768 827 722Q827 676 797.50 645.50Q768 615 722 615L480 615Q478 517 461.50 416.50Q445 316 412 212L733 212Q764 273 791.50 319.50Q819 366 875 366Q897 366 916.50 357.50Q936 349 950 334.50Q964 320 972.50 301Q981 282 981 260Q981 232 969 210L895 64Q861 0 799 0L260 0Z"  horiz-adv-x="1040" vert-adv-y="2048"  />

      
      <glyph glyph-name="unia4" unicode="&#xa4;" d="M484 864Q458 864 435.50 854Q413 844 396.50 827Q380 810 370 787.50Q360 765 360 740Q360 716 369.50 693.50Q379 671 395.50 654Q412 637 434.50 627Q457 617 484 617Q509 617 531.50 626.50Q554 636 570.50 653Q587 670 597 692Q607 714 607 740Q607 766 597 789Q587 812 570 828.50Q553 845 530.50 854.50Q508 864 484 864M686 1090Q716 1120 759 1120Q781 1120 800 1112Q819 1104 833 1089.50Q847 1075 855 1056Q863 1037 863 1016Q862 968 832 940L782 893Q816 826 816 740Q816 660 783 593L834 539Q863 508 863 465Q863 420 833.50 390.50Q804 361 759 361Q718 361 687 388L637 443Q565 408 484 408Q407 408 337 440L284 391Q250 361 209 361Q164 361 134 390.50Q104 420 104 465Q104 507 135 539L188 588Q152 657 152 740Q152 822 186 889L135 943Q104 970 104 1016Q104 1037 112 1056Q120 1075 134.50 1089.50Q149 1104 168 1112Q187 1120 209 1120Q250 1120 281 1092L331 1037Q410 1078 484 1073Q562 1073 631 1039L686 1090Z"  horiz-adv-x="960" vert-adv-y="2048"  />

      
      <glyph glyph-name="unia5" unicode="&#xa5;" d="M1183 1436L936 1068L1096 1068Q1140 1068 1171 1038.50Q1202 1009 1202 964Q1202 918 1171 888.50Q1140 859 1096 859L796 859L744 780L744 688L1095 688Q1139 688 1169.50 658.50Q1200 629 1200 584Q1200 539 1169.50 509.50Q1139 480 1095 480L744 480L744 106Q744 61 714 30.50Q684 0 639 0Q594 0 564.50 30.50Q535 61 535 106L535 480L184 480Q139 480 109.50 509.50Q80 539 80 584Q80 629 109.50 658.50Q139 688 184 688L535 688L535 780L483 859L184 859Q139 859 109.50 889Q80 919 80 964Q80 1009 109.50 1038.50Q139 1068 184 1068L344 1068L97 1436Q80 1462 80 1495Q80 1539 109.50 1569.50Q139 1600 184 1600Q237 1600 269 1556L640 1002L1010 1556Q1042 1600 1095 1600Q1140 1600 1169.50 1569.50Q1199 1539 1199 1495Q1199 1462 1183 1436Z"  horiz-adv-x="1280" vert-adv-y="2048"  />

      
      <glyph glyph-name="unia6" unicode="&#xa6;" d="M145 1623Q145 1668 175 1697.50Q205 1727 250 1727Q295 1727 324.50 1697.50Q354 1668 354 1623L354 940Q354 895 324.50 865Q295 835 250 835Q205 835 175 865Q145 895 145 940L145 1623M145 309Q145 354 175 383.50Q205 413 250 413Q295 413 324.50 383.50Q354 354 354 309L354-374Q354-419 324.50-449Q295-479 250-479Q205-479 175-449Q145-419 145-374L145 309Z"  horiz-adv-x="480" vert-adv-y="2048"  />

      
      <glyph glyph-name="unia7" unicode="&#xa7;" d="M494 765Q452 765 414.50 749.50Q377 734 349.50 706Q322 678 305.50 640.50Q289 603 289 562Q289 518 305.50 481Q322 444 349.50 416.50Q377 389 414.50 373.50Q452 358 494 358Q535 358 572 373.50Q609 389 637 417Q665 445 681.50 481.50Q698 518 698 562Q698 603 681.50 640.50Q665 678 637 706Q609 734 572 749.50Q535 765 494 765M912 1183Q912 1137 881.50 1106.50Q851 1076 805 1076Q759 1076 728.50 1106.50Q698 1137 698 1183Q698 1225 681.50 1262.50Q665 1300 637 1327.50Q609 1355 572 1371.50Q535 1388 494 1388Q452 1388 414.50 1371.50Q377 1355 349.50 1327.50Q322 1300 305.50 1262.50Q289 1225 289 1183Q289 1141 305 1103.50Q321 1066 348.50 1038.50Q376 1011 413.50 995Q451 979 494 979Q580 979 656 946Q732 913 789 856Q846 799 879 723Q912 647 912 562Q912 385 773 250Q912 115 912-60Q912-146 878.50-222Q845-298 788-355Q731-412 655.50-445.50Q580-479 494-479Q408-479 331.50-445.50Q255-412 198.50-355Q142-298 109-222Q76-146 76-60Q76-14 106.50 16.50Q137 47 184 47Q229 47 259 16.50Q289-14 289-60Q289-102 305.50-139.50Q322-177 349.50-204.50Q377-232 414.50-248.50Q452-265 494-265Q535-265 572-248.50Q609-232 637-204.50Q665-177 681.50-139.50Q698-102 698-60Q698-19 681.50 18Q665 55 637 83Q609 111 572 127.50Q535 144 494 144Q408 144 331.50 176.50Q255 209 198.50 266Q142 323 109 399Q76 475 76 562Q76 735 213 873Q136 947 106 1022.50Q76 1098 76 1183Q76 1268 109 1344.50Q142 1421 198.50 1478Q255 1535 331.50 1568.50Q408 1602 494 1602Q580 1602 655.50 1568.50Q731 1535 788 1478Q845 1421 878.50 1345Q912 1269 912 1183Z"  horiz-adv-x="960" vert-adv-y="2048"  />

      
      <glyph glyph-name="unia8" unicode="&#xa8;" d="M378 1359Q378 1308 342 1272Q306 1236 255 1236Q204 1236 168 1272Q132 1308 132 1359Q132 1410 168 1446Q204 1482 255 1482Q306 1482 342 1446Q378 1410 378 1359M833 1359Q833 1308 797 1272Q761 1236 710 1236Q659 1236 623 1272Q587 1308 587 1359Q587 1410 623 1446Q659 1482 710 1482Q761 1482 797 1446Q833 1410 833 1359Z"  horiz-adv-x="960" vert-adv-y="2048"  />

      
      <glyph glyph-name="unia9" unicode="&#xa9;" d="M1175 561Q1220 561 1249 530.50Q1278 500 1278 457Q1278 436 1270 416Q1262 396 1245 381Q1169 313 1079 279.50Q989 246 883 246Q653 246 491 409Q328 572 328 802Q328 1030 491 1194Q571 1275 669.50 1316Q768 1357 883 1357Q1093 1357 1245 1222Q1281 1190 1281 1143Q1281 1098 1252 1068.50Q1223 1039 1178 1039Q1160 1039 1142 1044.50Q1124 1050 1111 1063Q1060 1106 1004.50 1128Q949 1150 883 1150Q811 1150 747.50 1122Q684 1094 636.50 1046.50Q589 999 561.50 936Q534 873 534 802Q534 730 561.50 667Q589 604 636 556.50Q683 509 746.50 481.50Q810 454 883 454Q949 454 1004.50 475Q1060 496 1110 539Q1123 551 1139.50 555.50Q1156 560 1175 561M1685 800Q1685 467 1450 234Q1214 0 886 0Q720 0 578.50 58Q437 116 319 234Q201 351 143.50 492.50Q86 634 86 800Q86 1130 319 1364Q552 1599 886 1599Q1218 1599 1450 1364Q1685 1132 1685 800M883 1437Q619 1437 433 1251Q247 1065 247 803Q247 668 292.50 557Q338 446 433 352Q618 167 883 167Q1015 167 1127.50 212.50Q1240 258 1332 352Q1518 540 1518 803Q1518 1065 1332 1251Q1146 1437 883 1437Z"  horiz-adv-x="1760" vert-adv-y="2048"  />

      
      <glyph glyph-name="uniaa" unicode="&#xaa;" d="M484 1367Q443 1367 406.50 1351Q370 1335 343 1308Q316 1281 300 1244.50Q284 1208 284 1167Q284 1126 299.50 1089.50Q315 1053 342 1026Q369 999 405.50 983.50Q442 968 484 968Q524 968 560.50 984Q597 1000 624 1027Q651 1054 667 1090Q683 1126 683 1167Q683 1208 667 1244.50Q651 1281 623.50 1308Q596 1335 560 1351Q524 1367 484 1367M713 791Q702 802 695 816Q601 759 484 759Q400 759 325.50 791.50Q251 824 195.50 880Q140 936 108 1010Q76 1084 76 1167Q76 1250 108 1324.50Q140 1399 195.50 1455Q251 1511 325.50 1543.50Q400 1576 484 1576Q568 1576 642 1543.50Q716 1511 771.50 1455Q827 1399 859.50 1325Q892 1251 892 1167L892 864Q892 842 884 823Q876 804 861.50 789.50Q847 775 828 767Q809 759 788 759Q743 759 713 791Z"  horiz-adv-x="960" vert-adv-y="2048"  />

      
      <glyph glyph-name="uniab" unicode="&#xab;" d="M312 1055Q326 1087 351 1103Q376 1119 408 1119Q453 1119 482.50 1089.50Q512 1060 513 1015Q512 990 503 970L298 560L503 148Q512 129 512 104Q512 83 504 64Q496 45 482 30.50Q468 16 449 8Q430 0 408 0Q379 0 353 16Q327 32 312 64L91 505Q76 534 76 559Q76 583 89 609L312 1055M694 1055Q708 1087 733 1103Q758 1119 790 1119Q835 1119 864.50 1089.50Q894 1060 895 1015Q894 990 885 970L680 560L885 148Q894 129 894 104Q894 83 886 64Q878 45 864 30.50Q850 16 831 8Q812 0 790 0Q761 0 735 16Q709 32 694 64L473 505Q458 534 458 559Q458 583 471 609L694 1055Z"  horiz-adv-x="960" vert-adv-y="2048"  />

      
      <glyph glyph-name="uniac" unicode="&#xac;" d="M182 911Q137 911 107.50 941Q78 971 78 1016Q78 1037 86 1056Q94 1075 108 1089.50Q122 1104 141 1112Q160 1120 182 1120L941 1120Q963 1120 982 1112Q1001 1104 1015 1089.50Q1029 1075 1037.50 1056Q1046 1037 1046 1016L1046 712Q1046 690 1037.50 671Q1029 652 1015 637.50Q1001 623 982 615Q963 607 941 607Q920 607 901 615Q882 623 867.50 637.50Q853 652 845 671Q837 690 837 712L837 911L182 911Z"  horiz-adv-x="1120" vert-adv-y="2048"  />

      
      <glyph glyph-name="uniae" unicode="&#xae;" d="M1688 802Q1688 468 1452 235Q1216 0 888 0Q721 0 579.50 58Q438 116 320 235Q201 352 143.50 493.50Q86 635 86 802Q86 1132 320 1366Q553 1602 888 1602Q1220 1602 1452 1366Q1688 1134 1688 802M885 1435Q622 1435 437 1250Q252 1065 252 804Q252 670 297.50 560Q343 450 437 356Q621 172 885 172Q1016 172 1127.50 217.50Q1239 263 1331 356Q1516 543 1516 804Q1516 1065 1331 1250Q1146 1435 885 1435M717 1181L717 840L888 840Q923 840 954 853.50Q985 867 1008.50 890.50Q1032 914 1045.50 945Q1059 976 1059 1011Q1059 1046 1045.50 1077Q1032 1108 1008.50 1131Q985 1154 954 1167.50Q923 1181 888 1181L717 1181M888 1338Q954 1338 1013.50 1312Q1073 1286 1117.50 1242Q1162 1198 1188.50 1138Q1215 1078 1215 1011Q1215 923 1174 850.50Q1133 778 1051 727L1250 408Q1265 386 1265 364Q1265 348 1258.50 333.50Q1252 319 1241.50 308.50Q1231 298 1217 291.50Q1203 285 1187 285Q1143 285 1119 324L895 684L717 684L717 364Q717 332 693.50 308.50Q670 285 638 285Q622 285 608 291.50Q594 298 583.50 308.50Q573 319 566.50 333.50Q560 348 560 364L560 1260Q560 1293 583 1315.50Q606 1338 638 1338L888 1338Z"  horiz-adv-x="1760" vert-adv-y="2048"  />

      
      <glyph glyph-name="uniaf" unicode="&#xaf;" d="M182 1671Q137 1671 107.50 1700.50Q78 1730 78 1775Q78 1820 107.50 1849.50Q137 1879 182 1879L941 1879Q985 1879 1015.50 1849.50Q1046 1820 1046 1775Q1046 1730 1015.50 1700.50Q985 1671 941 1671L182 1671Z"  horiz-adv-x="1120" vert-adv-y="2048"  />

      
      <glyph glyph-name="unib0" unicode="&#xb0;" d="M892 1167Q892 1084 859.50 1010Q827 936 771.50 880Q716 824 642 791.50Q568 759 484 759Q400 759 325.50 791.50Q251 824 195.50 880Q140 936 108 1010Q76 1084 76 1167Q76 1250 108 1324.50Q140 1399 195.50 1455Q251 1511 325.50 1543.50Q400 1576 484 1576Q568 1576 642 1543.50Q716 1511 771.50 1455Q827 1399 859.50 1325Q892 1251 892 1167M484 1367Q443 1367 406.50 1351Q370 1335 343 1308Q316 1281 300 1244.50Q284 1208 284 1167Q284 1126 299.50 1089.50Q315 1053 342 1026Q369 999 405.50 983.50Q442 968 484 968Q524 968 560.50 984Q597 1000 624 1027Q651 1054 667 1090Q683 1126 683 1167Q683 1208 667 1244.50Q651 1281 623.50 1308Q596 1335 560 1351Q524 1367 484 1367Z"  horiz-adv-x="960" vert-adv-y="2048"  />

      
      <glyph glyph-name="unib1" unicode="&#xb1;" d="M941 683L666 683L666 408Q666 363 636.50 333.50Q607 304 562 304Q517 304 487 333.50Q457 363 457 408L457 683L182 683Q137 683 107.50 713Q78 743 78 788Q78 833 107.50 862.50Q137 892 182 892L457 892L457 1167Q457 1210 487.50 1241Q518 1272 562 1272Q607 1272 636.50 1241.50Q666 1211 666 1167L666 892L941 892Q984 892 1015 861.50Q1046 831 1046 787Q1046 744 1015 713.50Q984 683 941 683M182 0Q137 0 107.50 29.50Q78 59 78 104Q78 149 107.50 178.50Q137 208 182 208L942 208Q987 208 1016.50 178.50Q1046 149 1046 104Q1046 59 1016.50 29.50Q987 0 942 0L182 0Z"  horiz-adv-x="1120" vert-adv-y="2048"  />

      
      <glyph glyph-name="unib2" unicode="&#xb2;" d="M514 923Q540 923 559.50 903Q579 883 579 857Q579 828 559.50 809.50Q540 791 514 791L138 791Q109 791 90.50 809.50Q72 828 72 857Q72 885 89 903L410 1258Q447 1295 447 1345Q447 1370 437 1392.50Q427 1415 410.50 1431.50Q394 1448 372 1458Q350 1468 326 1468Q300 1468 278 1458Q256 1448 239 1431.50Q222 1415 212.50 1392.50Q203 1370 203 1345Q203 1319 183.50 1299.50Q164 1280 138 1280Q109 1280 90.50 1299.50Q72 1319 72 1345Q72 1398 92.50 1444.50Q113 1491 147.50 1525.50Q182 1560 228.50 1580Q275 1600 326 1600Q377 1600 423 1580Q469 1560 503.50 1525Q538 1490 558.50 1443.50Q579 1397 579 1345Q579 1294 560 1249Q541 1204 505 1167L287 923L514 923Z"  horiz-adv-x="640" vert-adv-y="2048"  />

      
      <glyph glyph-name="unib3" unicode="&#xb3;" d="M328 1165Q299 1165 280 1183.50Q261 1202 261 1231Q261 1257 280 1277.50Q299 1298 328 1298Q363 1298 387.50 1322.50Q412 1347 412 1382Q412 1420 387 1444Q362 1468 328 1468Q310 1468 294.50 1461Q279 1454 267 1442.50Q255 1431 248.50 1415.50Q242 1400 242 1382Q242 1356 222 1336.50Q202 1317 176 1317Q147 1317 128.50 1336.50Q110 1356 110 1382Q110 1428 127.50 1468Q145 1508 175 1537.50Q205 1567 244.50 1584Q284 1601 328 1601Q372 1601 411.50 1583Q451 1565 480.50 1535Q510 1505 527.50 1465Q545 1425 545 1382Q545 1342 530.50 1305Q516 1268 492 1238Q538 1205 560.50 1150.50Q583 1096 583 1042Q583 990 563 943.50Q543 897 508 862Q473 827 426.50 806.50Q380 786 328 786Q275 786 228.50 806Q182 826 147 861Q112 896 92 942.50Q72 989 72 1042Q72 1071 90.50 1089.50Q109 1108 138 1108Q164 1108 184 1089.50Q204 1071 204 1042Q204 1017 213 994.50Q222 972 238.50 955.50Q255 939 278 929Q301 919 328 919Q354 919 376 928.50Q398 938 414.50 955Q431 972 440.50 994Q450 1016 450 1042Q450 1067 440 1089.50Q430 1112 413.50 1128.50Q397 1145 375 1155Q353 1165 328 1165Z"  horiz-adv-x="640" vert-adv-y="2048"  />

      
      <glyph glyph-name="unib4" unicode="&#xb4;" d="M480 1421L280 1222Q252 1194 208 1194Q163 1194 133.50 1223.50Q104 1253 104 1298Q104 1341 130 1369L330 1568Q362 1599 404 1599Q449 1599 478.50 1568.50Q508 1538 508 1494Q508 1449 480 1421Z"  horiz-adv-x="560" vert-adv-y="2048"  />

      
      <glyph glyph-name="unib5" unicode="&#xb5;" d="M288 522Q288 457 312.50 400Q337 343 379.50 300.50Q422 258 479 233.50Q536 209 601 209Q665 209 722 233.50Q779 258 822 301Q865 344 889.50 400.50Q914 457 914 522L914 1016Q914 1037 922 1056Q930 1075 944 1089.50Q958 1104 977 1112Q996 1120 1018 1120Q1040 1120 1059 1112Q1078 1104 1092 1089.50Q1106 1075 1114.50 1056Q1123 1037 1123 1016L1123 104Q1123 83 1114.50 64Q1106 45 1092 30.50Q1078 16 1059 8Q1040 0 1018 0Q973 0 944 30Q915 60 914 103Q845 49 768 24.50Q691 0 601 0Q421 0 288 103L288-374Q288-396 279.50-415Q271-434 257-448.50Q243-463 224-471Q205-479 183-479Q138-479 108.50-449Q79-419 79-374L79 1016Q79 1037 87 1056Q95 1075 109 1089.50Q123 1104 142 1112Q161 1120 183 1120Q205 1120 224 1112Q243 1104 257 1089.50Q271 1075 279.50 1056Q288 1037 288 1016L288 522Z"  horiz-adv-x="1200" vert-adv-y="2048"  />

      
      <glyph glyph-name="unib6" unicode="&#xb6;" d="M970 104Q970 83 961.50 64Q953 45 939 30.50Q925 16 906 8Q887 0 865 0Q844 0 825 8Q806 16 791.50 30.50Q777 45 769 64Q761 83 761 104L761 1390L666 1390L666 104Q666 83 658 64Q650 45 636 30.50Q622 16 603 8Q584 0 562 0Q540 0 521 8Q502 16 487.50 30.50Q473 45 465 64Q457 83 457 104L457 783Q378 788 309 822.50Q240 857 188.50 912.50Q137 968 107.50 1040Q78 1112 78 1190Q78 1273 110 1347.50Q142 1422 197.50 1478Q253 1534 327.50 1566.50Q402 1599 486 1599L941 1599Q963 1599 982 1590.50Q1001 1582 1015 1568Q1029 1554 1037.50 1535Q1046 1516 1046 1494Q1046 1458 1025 1430.50Q1004 1403 970 1394L970 104Z"  horiz-adv-x="1120" vert-adv-y="2048"  />

      
      <glyph glyph-name="unib7" unicode="&#xb7;" d="M343 750Q343 691 301.50 649.50Q260 608 201 608Q142 608 100.50 649.50Q59 691 59 750Q59 809 100.50 850.50Q142 892 201 892Q260 892 301.50 850.50Q343 809 343 750Z"  horiz-adv-x="400" vert-adv-y="2048"  />

      
      <glyph glyph-name="uni2219" unicode="&#x2219;" d="M343 750Q343 691 301.50 649.50Q260 608 201 608Q142 608 100.50 649.50Q59 691 59 750Q59 809 100.50 850.50Q142 892 201 892Q260 892 301.50 850.50Q343 809 343 750Z"  horiz-adv-x="400" vert-adv-y="2048"  />

      
      <glyph glyph-name="unib8" unicode="&#xb8;" d="M293 82Q324 110 366 110Q411 110 440.50 79.50Q470 49 470 5Q470-6 467-18L458-53Q584-127 584-251Q584-348 507-414Q434-479 328-479Q264-479 205-448L118-395Q72-358 72-308Q72-264 101.50-233.50Q131-203 176-203Q205-202 232-219L304-264Q316-270 328-270Q375-270 375-248Q375-226 330-223Q285-223 248.50-189.50Q212-156 225-104L265 35Q271 58 293 82Z"  horiz-adv-x="640" vert-adv-y="2048"  />

      
      <glyph glyph-name="unib9" unicode="&#xb9;" d="M353 855Q353 826 332.50 807Q312 788 286 788Q260 788 240 807Q220 826 220 855L220 1443L198 1434Q189 1430 173 1430Q144 1430 125.50 1448.50Q107 1467 107 1496Q107 1514 118.50 1531.50Q130 1549 150 1558L265 1597Q275 1600 286 1600Q312 1600 332.50 1581Q353 1562 353 1533L353 855Z"  horiz-adv-x="480" vert-adv-y="2048"  />

      
      <glyph glyph-name="uniba" unicode="&#xba;" d="M72 1194Q72 1290 89 1365Q106 1440 138.50 1492.50Q171 1545 218.50 1572.50Q266 1600 327 1600Q386 1600 433 1572.50Q480 1545 513 1492.50Q546 1440 563.50 1365Q581 1290 581 1194Q581 1098 563.50 1023Q546 948 513 895.50Q480 843 433 815.50Q386 788 327 788Q266 788 218.50 815.50Q171 843 138.50 895.50Q106 948 89 1023Q72 1098 72 1194M327 1468Q297 1468 274 1446.50Q251 1425 235.50 1387.50Q220 1350 212 1300.50Q204 1251 204 1194Q204 1018 268 945L266 946Q290 921 327 921Q358 921 381 942Q404 963 419 1000Q434 1037 441.50 1087Q449 1137 449 1194Q449 1372 386 1443L386 1442Q362 1468 327 1468Z"  horiz-adv-x="640" vert-adv-y="2048"  />

      
      <glyph glyph-name="unibb" unicode="&#xbb;" d="M882 609Q895 583 895 559Q895 534 880 505L659 64Q644 32 618 16Q592 0 563 0Q541 0 522 8Q503 16 489 30.50Q475 45 467 64Q459 83 459 104Q459 129 468 148L673 560L468 970Q459 990 458 1015Q459 1060 488.50 1089.50Q518 1119 563 1119Q595 1119 620 1103Q645 1087 659 1055L882 609M500 609Q513 583 513 559Q513 534 498 505L277 64Q262 32 236 16Q210 0 181 0Q159 0 140 8Q121 16 107 30.50Q93 45 85 64Q77 83 77 104Q77 129 86 148L291 560L86 970Q77 990 76 1015Q77 1060 106.50 1089.50Q136 1119 181 1119Q213 1119 238 1103Q263 1087 277 1055L500 609Z"  horiz-adv-x="960" vert-adv-y="2048"  />

      
      <glyph glyph-name="unibc" unicode="&#xbc;" d="M1189 1600Q1211 1600 1230 1591.50Q1249 1583 1263 1569Q1277 1555 1285.50 1536Q1294 1517 1294 1495Q1294 1465 1278 1438L352 51Q316 0 262 0Q240 0 221 8Q202 16 188 30.50Q174 45 166 64Q158 83 158 104Q158 138 173 160L1105 1558Q1133 1600 1189 1600M367 704Q367 673 345.50 651.50Q324 630 292 630Q261 630 239.50 651.50Q218 673 218 704L218 1421L182 1411Q168 1406 156 1406Q124 1406 103 1427Q82 1448 82 1480Q82 1502 94 1520.50Q106 1539 125 1547L266 1595Q279 1600 292 1600Q324 1600 345.50 1578.50Q367 1557 367 1526L367 704M1069 376L1069 657L875 376L1069 376M733 228Q701 228 680 249Q659 270 659 302Q659 325 673 345L1082 937Q1104 968 1143 968Q1175 968 1196 947Q1217 926 1217 894L1217 376L1280 376Q1311 376 1332.50 355Q1354 334 1354 302Q1354 270 1332.50 249Q1311 228 1280 228L1217 228L1217 74Q1217 42 1196 21Q1175 0 1143 0Q1111 0 1090 21Q1069 42 1069 74L1069 228L733 228Z"  horiz-adv-x="1440" vert-adv-y="2048"  />

      
      <glyph glyph-name="unibd" unicode="&#xbd;" d="M1433 148Q1463 148 1485.50 127Q1508 106 1508 74Q1508 42 1485.50 21Q1463 0 1433 0L977 0Q945 0 924 21Q903 42 903 74Q903 102 924 125L1313 556Q1359 602 1359 667Q1359 699 1346.50 727Q1334 755 1313 776Q1292 797 1264 809Q1236 821 1205 821Q1173 821 1145 809Q1117 797 1096 776Q1075 755 1063 727Q1051 699 1051 667Q1051 635 1030 614Q1009 593 977 593Q945 593 924 614Q903 635 903 667Q903 729 927 784Q951 839 992 880Q1033 921 1088 945Q1143 969 1205 969Q1266 969 1321.50 944.50Q1377 920 1418 879Q1459 838 1483.50 783Q1508 728 1508 667Q1508 606 1484.50 553Q1461 500 1419 454L1144 148L1433 148M1189 1600Q1211 1600 1230 1591.50Q1249 1583 1263 1569Q1277 1555 1285.50 1536Q1294 1517 1294 1495Q1294 1465 1278 1438L352 51Q316 0 262 0Q240 0 221 8Q202 16 188 30.50Q174 45 166 64Q158 83 158 104Q158 138 173 160L1105 1558Q1133 1600 1189 1600M367 704Q367 673 345.50 651.50Q324 630 292 630Q261 630 239.50 651.50Q218 673 218 704L218 1421L182 1411Q168 1406 156 1406Q124 1406 103 1427Q82 1448 82 1480Q82 1502 94 1520.50Q106 1539 125 1547L266 1595Q279 1600 292 1600Q324 1600 345.50 1578.50Q367 1557 367 1526L367 704Z"  horiz-adv-x="1600" vert-adv-y="2048"  />

      
      <glyph glyph-name="unibe" unicode="&#xbe;" d="M385 1089Q353 1089 332 1110Q311 1131 311 1163Q311 1192 332 1214Q353 1236 385 1236Q407 1236 426.50 1244.50Q446 1253 461 1268Q476 1283 484.50 1302.50Q493 1322 493 1344Q493 1367 483.50 1386.50Q474 1406 459 1420.50Q444 1435 424.50 1443.50Q405 1452 385 1452Q363 1452 343.50 1443.50Q324 1435 309 1420Q294 1405 285.50 1385.50Q277 1366 277 1344Q277 1329 271 1315.50Q265 1302 254.50 1292Q244 1282 231 1276Q218 1270 203 1270Q172 1270 150.50 1291.50Q129 1313 129 1344Q129 1396 149.50 1442.50Q170 1489 204.50 1524Q239 1559 285.50 1579.50Q332 1600 385 1600Q438 1600 484.50 1579.50Q531 1559 565.50 1523.50Q600 1488 620 1441.50Q640 1395 640 1344Q640 1245 573 1172Q600 1144 621.50 1117.50Q643 1091 657 1062.50Q671 1034 678.50 1002.50Q686 971 686 935Q686 874 662 819.50Q638 765 596.50 723.50Q555 682 500.50 658Q446 634 385 634Q323 634 268.50 658Q214 682 173 723Q132 764 108 818.50Q84 873 84 935Q84 967 105 988Q126 1009 158 1009Q190 1009 211 988Q232 967 232 935Q232 903 244 875Q256 847 276.50 826.50Q297 806 325 794.50Q353 783 385 783Q416 783 443.50 795Q471 807 492 828Q513 849 525 876.50Q537 904 537 935Q537 968 525 996Q513 1024 492 1044.50Q471 1065 443.50 1077Q416 1089 385 1089M1343 1600Q1365 1600 1384 1591.50Q1403 1583 1417 1569Q1431 1555 1439.50 1536Q1448 1517 1448 1495Q1448 1465 1432 1438L506 51Q470 0 416 0Q394 0 375 8Q356 16 342 30.50Q328 45 320 64Q312 83 312 104Q312 138 327 160L1259 1558Q1287 1600 1343 1600M1222 376L1222 657L1028 376L1222 376M886 228Q854 228 833 249Q812 270 812 302Q812 325 826 345L1235 937Q1257 968 1296 968Q1328 968 1349 947Q1370 926 1370 894L1370 376L1433 376Q1464 376 1485.50 355Q1507 334 1507 302Q1507 270 1485.50 249Q1464 228 1433 228L1370 228L1370 74Q1370 42 1349 21Q1328 0 1296 0Q1264 0 1243 21Q1222 42 1222 74L1222 228L886 228Z"  horiz-adv-x="1600" vert-adv-y="2048"  />

      
      <glyph glyph-name="unibf" unicode="&#xbf;" d="M562-271Q619-271 669-249.50Q719-228 756.50-191Q794-154 815.50-104Q837-54 837 4Q837 26 845.50 45Q854 64 868 78.50Q882 93 901 101Q920 109 942 109Q987 109 1016.50 79Q1046 49 1046 4Q1046-96 1007.50-184Q969-272 903-338Q837-404 749-442Q661-480 562-480Q463-480 375-441Q287-402 221-336Q155-270 116.50-182Q78-94 78 4Q78 202 221 348L378 493Q458 573 458 688Q458 733 487.50 762.50Q517 792 562 792Q607 792 637 762.50Q667 733 667 688Q667 488 524 345L367 199Q287 116 287 4Q287-52 309-102Q331-152 368.50-189.50Q406-227 456-249Q506-271 562-271M562 835Q503 835 461.50 876.50Q420 918 420 977Q420 1036 461.50 1077.50Q503 1119 562 1119Q621 1119 662.50 1077.50Q704 1036 704 977Q704 918 662.50 876.50Q621 835 562 835Z"  horiz-adv-x="1120" vert-adv-y="2048"  />

      
      <glyph glyph-name="unic0" unicode="&#xc0;" d="M897 752L723 1201L549 752L897 752M88 154L622 1528Q654 1600 723 1600Q794 1600 824 1528L1360 149Q1368 129 1368 106Q1368 62 1337 31Q1306 0 1262 0Q1218 0 1188 31Q1172 47 1164 65L979 540L467 540L281 65Q273 47 257 31Q226 0 182 0Q138 0 107.50 31Q77 62 77 106Q77 130 88 154M444 1974Q444 2018 473.50 2048.50Q503 2079 548 2079Q590 2079 622 2048L822 1849Q848 1821 848 1778Q848 1733 818.50 1703.50Q789 1674 744 1674Q700 1674 672 1702L472 1901Q444 1929 444 1974Z"  horiz-adv-x="1440" vert-adv-y="2048"  />

      
      <glyph glyph-name="unic1" unicode="&#xc1;" d="M897 752L723 1201L549 752L897 752M88 154L622 1528Q654 1600 723 1600Q794 1600 824 1528L1360 149Q1368 129 1368 106Q1368 62 1337 31Q1306 0 1262 0Q1218 0 1188 31Q1172 47 1164 65L979 540L467 540L281 65Q273 47 257 31Q226 0 182 0Q138 0 107.50 31Q77 62 77 106Q77 130 88 154M987 1901L787 1702Q759 1674 715 1674Q670 1674 640.50 1703.50Q611 1733 611 1778Q611 1821 637 1849L837 2048Q869 2079 911 2079Q956 2079 985.50 2048.50Q1015 2018 1015 1974Q1015 1929 987 1901Z"  horiz-adv-x="1440" vert-adv-y="2048"  />

      
      <glyph glyph-name="unic2" unicode="&#xc2;" d="M897 752L723 1201L549 752L897 752M88 154L622 1528Q654 1600 723 1600Q794 1600 824 1528L1360 149Q1368 129 1368 106Q1368 62 1337 31Q1306 0 1262 0Q1218 0 1188 31Q1172 47 1164 65L979 540L467 540L281 65Q273 47 257 31Q226 0 182 0Q138 0 107.50 31Q77 62 77 106Q77 130 88 154M998 1913Q1048 1875 1048 1823Q1048 1778 1018.50 1748.50Q989 1719 944 1719Q909 1719 878 1741L716 1848L554 1741Q524 1719 488 1719Q443 1719 413.50 1748.50Q384 1778 384 1823Q384 1876 433 1913L662 2064Q687 2080 716 2080Q745 2080 770 2064L998 1913Z"  horiz-adv-x="1440" vert-adv-y="2048"  />

      
      <glyph glyph-name="unic3" unicode="&#xc3;" d="M897 752L723 1201L549 752L897 752M88 154L622 1528Q654 1600 723 1600Q794 1600 824 1528L1360 149Q1368 129 1368 106Q1368 62 1337 31Q1306 0 1262 0Q1218 0 1188 31Q1172 47 1164 65L979 540L467 540L281 65Q273 47 257 31Q226 0 182 0Q138 0 107.50 31Q77 62 77 106Q77 130 88 154M569 1711Q531 1711 485 1722Q439 1733 398.50 1755Q358 1777 331 1808.50Q304 1840 304 1882Q305 1929 335 1957.50Q365 1986 408 1986Q444 1986 489 1953Q534 1920 573 1920Q616 1920 646 1947Q733 2029 865 2029Q902 2029 948.50 2017.50Q995 2006 1035 1984Q1075 1962 1102.50 1930Q1130 1898 1130 1858Q1130 1813 1099.50 1783.50Q1069 1754 1025 1754Q993 1754 945.50 1787Q898 1820 862 1820Q821 1820 788 1793Q698 1711 569 1711Z"  horiz-adv-x="1440" vert-adv-y="2048"  />

      
      <glyph glyph-name="unic4" unicode="&#xc4;" d="M897 752L723 1201L549 752L897 752M88 154L622 1528Q654 1600 723 1600Q794 1600 824 1528L1360 149Q1368 129 1368 106Q1368 62 1337 31Q1306 0 1262 0Q1218 0 1188 31Q1172 47 1164 65L979 540L467 540L281 65Q273 47 257 31Q226 0 182 0Q138 0 107.50 31Q77 62 77 106Q77 130 88 154M619 1839Q619 1788 583 1752Q547 1716 496 1716Q445 1716 409 1752Q373 1788 373 1839Q373 1890 409 1926Q445 1962 496 1962Q547 1962 583 1926Q619 1890 619 1839M1074 1839Q1074 1788 1038 1752Q1002 1716 951 1716Q900 1716 864 1752Q828 1788 828 1839Q828 1890 864 1926Q900 1962 951 1962Q1002 1962 1038 1926Q1074 1890 1074 1839Z"  horiz-adv-x="1440" vert-adv-y="2048"  />

      
      <glyph glyph-name="unic5" unicode="&#xc5;" d="M897 752L723 1201L549 752L897 752M88 154L622 1528Q654 1600 723 1600Q794 1600 824 1528L1360 149Q1368 129 1368 106Q1368 62 1337 31Q1306 0 1262 0Q1218 0 1188 31Q1172 47 1164 65L979 540L467 540L281 65Q273 47 257 31Q226 0 182 0Q138 0 107.50 31Q77 62 77 106Q77 130 88 154M938 1859Q938 1814 920.50 1774Q903 1734 873 1704Q843 1674 803.50 1656.50Q764 1639 719 1639Q674 1639 634 1656Q594 1673 564 1703Q534 1733 516.50 1773Q499 1813 499 1859Q499 1904 516.50 1944Q534 1984 564 2014Q594 2044 634 2061.50Q674 2079 719 2079Q764 2079 804 2061Q844 2043 874 2013Q904 1983 921 1943Q938 1903 938 1859M719 1926Q691 1926 671 1906Q651 1886 651 1859Q651 1831 671 1811.50Q691 1792 719 1792Q746 1792 765.50 1811.50Q785 1831 785 1859Q785 1886 765.50 1906Q746 1926 719 1926Z"  horiz-adv-x="1440" vert-adv-y="2048"  />

      
      <glyph glyph-name="unic6" unicode="&#xc6;" d="M851 1084L710 829L851 829L851 1084M1574 1600Q1596 1600 1615.50 1592Q1635 1584 1649.50 1569.50Q1664 1555 1672 1535.50Q1680 1516 1680 1494Q1680 1471 1672 1452Q1664 1433 1649.50 1418.50Q1635 1404 1615.50 1396Q1596 1388 1574 1388L1063 1388L1063 829L1420 829Q1442 829 1461.50 821Q1481 813 1495.50 798.50Q1510 784 1518 764.50Q1526 745 1526 723Q1526 700 1518 681Q1510 662 1495.50 647.50Q1481 633 1461.50 625Q1442 617 1420 617L1063 617L1063 212L1574 212Q1596 212 1615.50 204Q1635 196 1649.50 181.50Q1664 167 1672 147.50Q1680 128 1680 106Q1680 83 1672 64Q1664 45 1649.50 30.50Q1635 16 1615.50 8Q1596 0 1574 0L957 0Q934 0 915 8Q896 16 881.50 30.50Q867 45 859 64Q851 83 851 106L851 617L592 617L275 47Q243 0 186 0Q163 0 144 8Q125 16 110.50 30.50Q96 45 88 64Q80 83 80 106Q80 135 95 159L867 1550Q894 1600 957 1600L1574 1600Z"  horiz-adv-x="1760" vert-adv-y="2048"  />

      
      <glyph glyph-name="unic7" unicode="&#xc7;" d="M1308 360Q1330 360 1349 351.50Q1368 343 1382.50 329Q1397 315 1405.50 295.50Q1414 276 1414 254Q1414 212 1381 178Q1158 0 878 0Q546 0 312 234Q78 468 78 800Q78 1131 312 1365Q547 1600 878 1600Q1162 1600 1391 1413Q1419 1386 1419 1340Q1419 1317 1411 1298Q1403 1279 1388.50 1264.50Q1374 1250 1354.50 1242Q1335 1234 1313 1234Q1274 1234 1240 1264Q1164 1324 1072.50 1356Q981 1388 878 1388Q634 1388 461 1215Q290 1044 290 800Q290 555 461 384Q633 212 878 212Q1087 212 1246 341Q1272 359 1308 360M719 82Q750 110 792 110Q837 110 866.50 79.50Q896 49 896 5Q896-6 893-18L884-53Q1010-127 1010-251Q1010-348 933-414Q860-479 754-479Q690-479 631-448L544-395Q498-358 498-308Q498-264 527.50-233.50Q557-203 602-203Q631-202 658-219L730-264Q742-270 754-270Q801-270 801-248Q801-226 756-223Q711-223 674.50-189.50Q638-156 651-104L691 35Q697 58 719 82Z"  horiz-adv-x="1480" vert-adv-y="2048"  />

      
      <glyph glyph-name="unic8" unicode="&#xc8;" d="M1108 212Q1152 212 1183 181Q1214 150 1214 106Q1214 62 1183 31Q1152 0 1108 0L183 0Q160 0 141 8Q122 16 107.50 30.50Q93 45 85 64Q77 83 77 106L77 1494Q77 1516 85 1535.50Q93 1555 107.50 1569.50Q122 1584 141 1592Q160 1600 183 1600L1108 1600Q1152 1600 1183 1569Q1214 1538 1214 1494Q1214 1450 1183 1419Q1152 1388 1108 1388L289 1388L289 906L877 906Q921 906 952 875Q983 844 983 800Q983 756 952 725Q921 694 877 694L289 694L289 212L1108 212M366 1974Q366 2018 395.50 2048.50Q425 2079 470 2079Q512 2079 544 2048L744 1849Q770 1821 770 1778Q770 1733 740.50 1703.50Q711 1674 666 1674Q622 1674 594 1702L394 1901Q366 1929 366 1974Z"  horiz-adv-x="1280" vert-adv-y="2048"  />

      
      <glyph glyph-name="unic9" unicode="&#xc9;" d="M1108 212Q1152 212 1183 181Q1214 150 1214 106Q1214 62 1183 31Q1152 0 1108 0L183 0Q160 0 141 8Q122 16 107.50 30.50Q93 45 85 64Q77 83 77 106L77 1494Q77 1516 85 1535.50Q93 1555 107.50 1569.50Q122 1584 141 1592Q160 1600 183 1600L1108 1600Q1152 1600 1183 1569Q1214 1538 1214 1494Q1214 1450 1183 1419Q1152 1388 1108 1388L289 1388L289 906L877 906Q921 906 952 875Q983 844 983 800Q983 756 952 725Q921 694 877 694L289 694L289 212L1108 212M909 1901L709 1702Q681 1674 637 1674Q592 1674 562.50 1703.50Q533 1733 533 1778Q533 1821 559 1849L759 2048Q791 2079 833 2079Q878 2079 907.50 2048.50Q937 2018 937 1974Q937 1929 909 1901Z"  horiz-adv-x="1280" vert-adv-y="2048"  />

      
      <glyph glyph-name="unica" unicode="&#xca;" d="M1108 212Q1152 212 1183 181Q1214 150 1214 106Q1214 62 1183 31Q1152 0 1108 0L183 0Q160 0 141 8Q122 16 107.50 30.50Q93 45 85 64Q77 83 77 106L77 1494Q77 1516 85 1535.50Q93 1555 107.50 1569.50Q122 1584 141 1592Q160 1600 183 1600L1108 1600Q1152 1600 1183 1569Q1214 1538 1214 1494Q1214 1450 1183 1419Q1152 1388 1108 1388L289 1388L289 906L877 906Q921 906 952 875Q983 844 983 800Q983 756 952 725Q921 694 877 694L289 694L289 212L1108 212M918 1913Q968 1875 968 1823Q968 1778 938.50 1748.50Q909 1719 864 1719Q829 1719 798 1741L636 1848L474 1741Q444 1719 408 1719Q363 1719 333.50 1748.50Q304 1778 304 1823Q304 1876 353 1913L582 2064Q607 2080 636 2080Q665 2080 690 2064L918 1913Z"  horiz-adv-x="1280" vert-adv-y="2048"  />

      
      <glyph glyph-name="unicb" unicode="&#xcb;" d="M1108 212Q1152 212 1183 181Q1214 150 1214 106Q1214 62 1183 31Q1152 0 1108 0L183 0Q160 0 141 8Q122 16 107.50 30.50Q93 45 85 64Q77 83 77 106L77 1494Q77 1516 85 1535.50Q93 1555 107.50 1569.50Q122 1584 141 1592Q160 1600 183 1600L1108 1600Q1152 1600 1183 1569Q1214 1538 1214 1494Q1214 1450 1183 1419Q1152 1388 1108 1388L289 1388L289 906L877 906Q921 906 952 875Q983 844 983 800Q983 756 952 725Q921 694 877 694L289 694L289 212L1108 212M541 1839Q541 1788 505 1752Q469 1716 418 1716Q367 1716 331 1752Q295 1788 295 1839Q295 1890 331 1926Q367 1962 418 1962Q469 1962 505 1926Q541 1890 541 1839M996 1839Q996 1788 960 1752Q924 1716 873 1716Q822 1716 786 1752Q750 1788 750 1839Q750 1890 786 1926Q822 1962 873 1962Q924 1962 960 1926Q996 1890 996 1839Z"  horiz-adv-x="1280" vert-adv-y="2048"  />

      
      <glyph glyph-name="unicc" unicode="&#xcc;" d="M355 106Q355 62 324 31Q293 0 249 0Q205 0 174 31Q143 62 143 106L143 1494Q143 1538 174 1569Q205 1600 249 1600Q293 1600 324 1569Q355 1538 355 1494L355 106M3 1974Q3 2018 32.50 2048.50Q62 2079 107 2079Q149 2079 181 2048L381 1849Q407 1821 407 1778Q407 1733 377.50 1703.50Q348 1674 303 1674Q259 1674 231 1702L31 1901Q3 1929 3 1974Z"  horiz-adv-x="480" vert-adv-y="2048"  />

      
      <glyph glyph-name="unicd" unicode="&#xcd;" d="M355 106Q355 62 324 31Q293 0 249 0Q205 0 174 31Q143 62 143 106L143 1494Q143 1538 174 1569Q205 1600 249 1600Q293 1600 324 1569Q355 1538 355 1494L355 106M454 1901L254 1702Q226 1674 182 1674Q137 1674 107.50 1703.50Q78 1733 78 1778Q78 1821 104 1849L304 2048Q336 2079 378 2079Q423 2079 452.50 2048.50Q482 2018 482 1974Q482 1929 454 1901Z"  horiz-adv-x="480" vert-adv-y="2048"  />

      
      <glyph glyph-name="unice" unicode="&#xce;" d="M355 106Q355 62 324 31Q293 0 249 0Q205 0 174 31Q143 62 143 106L143 1494Q143 1538 174 1569Q205 1600 249 1600Q293 1600 324 1569Q355 1538 355 1494L355 106M537 1913Q587 1875 587 1823Q587 1778 557.50 1748.50Q528 1719 483 1719Q448 1719 417 1741L255 1848L93 1741Q63 1719 27 1719Q-18 1719-47.50 1748.50Q-77 1778-77 1823Q-77 1876-28 1913L201 2064Q226 2080 255 2080Q284 2080 309 2064L537 1913Z"  horiz-adv-x="480" vert-adv-y="2048"  />

      
      <glyph glyph-name="unicf" unicode="&#xcf;" d="M355 106Q355 62 324 31Q293 0 249 0Q205 0 174 31Q143 62 143 106L143 1494Q143 1538 174 1569Q205 1600 249 1600Q293 1600 324 1569Q355 1538 355 1494L355 106M148 1839Q148 1788 112 1752Q76 1716 25 1716Q-26 1716-62 1752Q-98 1788-98 1839Q-98 1890-62 1926Q-26 1962 25 1962Q76 1962 112 1926Q148 1890 148 1839M603 1839Q603 1788 567 1752Q531 1716 480 1716Q429 1716 393 1752Q357 1788 357 1839Q357 1890 393 1926Q429 1962 480 1962Q531 1962 567 1926Q603 1890 603 1839Z"  horiz-adv-x="480" vert-adv-y="2048"  />

      
      <glyph glyph-name="unid0" unicode="&#xd0;" d="M230 906L230 1494Q230 1516 238.50 1535.50Q247 1555 261.50 1569Q276 1583 295 1591.50Q314 1600 336 1600L645 1600Q975 1600 1210 1365Q1328 1247 1386.50 1107.50Q1445 968 1445 800Q1445 469 1210 234Q976 0 645 0L336 0Q314 0 295 8.50Q276 17 261.50 31Q247 45 238.50 64.50Q230 84 230 106L230 694L106 694Q83 694 64 702Q45 710 30.50 724.50Q16 739 8 758Q0 777 0 800Q0 822 8 841.50Q16 861 30.50 875.50Q45 890 64 898Q83 906 106 906L230 906M442 906L722 906Q767 906 797.50 875.50Q828 845 828 800Q828 777 820 758Q812 739 797.50 724.50Q783 710 763.50 702Q744 694 722 694L442 694L442 212L645 212Q888 212 1060 384Q1147 471 1190 573.50Q1233 676 1233 800Q1233 1042 1060 1215Q887 1388 645 1388L442 1388L442 906Z"  horiz-adv-x="1520" vert-adv-y="2048"  />

      
      <glyph glyph-name="unid1" unicode="&#xd1;" d="M77 106L77 1494Q77 1516 85 1535.50Q93 1555 107.50 1569.50Q122 1584 141 1592Q160 1600 183 1600Q230 1600 265 1561L1157 414L1157 1494Q1157 1538 1188 1569Q1219 1600 1263 1600Q1307 1600 1338 1569Q1369 1538 1369 1494L1369 106Q1369 83 1361 64Q1353 45 1338.50 30.50Q1324 16 1304.50 8Q1285 0 1263 0Q1216 0 1182 37L289 1184L289 106Q289 62 258 31Q227 0 183 0Q139 0 108 31Q77 62 77 106M569 1711Q531 1711 485 1722Q439 1733 398.50 1755Q358 1777 331 1808.50Q304 1840 304 1882Q305 1929 335 1957.50Q365 1986 408 1986Q444 1986 489 1953Q534 1920 573 1920Q616 1920 646 1947Q733 2029 865 2029Q902 2029 948.50 2017.50Q995 2006 1035 1984Q1075 1962 1102.50 1930Q1130 1898 1130 1858Q1130 1813 1099.50 1783.50Q1069 1754 1025 1754Q993 1754 945.50 1787Q898 1820 862 1820Q821 1820 788 1793Q698 1711 569 1711Z"  horiz-adv-x="1440" vert-adv-y="2048"  />

      
      <glyph glyph-name="unid2" unicode="&#xd2;" d="M880 1388Q756 1388 653.50 1345Q551 1302 464 1215Q377 1128 334.50 1026Q292 924 292 800Q292 556 464 384Q636 212 880 212Q1124 212 1296 384Q1468 556 1468 800Q1468 1043 1296 1215Q1123 1388 880 1388M1680 800Q1680 469 1445 234Q1211 0 880 0Q548 0 314 234Q80 468 80 800Q80 1131 314 1365Q549 1600 880 1600Q1210 1600 1445 1365Q1563 1247 1621.50 1107Q1680 967 1680 800M684 1974Q684 2018 713.50 2048.50Q743 2079 788 2079Q830 2079 862 2048L1062 1849Q1088 1821 1088 1778Q1088 1733 1058.50 1703.50Q1029 1674 984 1674Q940 1674 912 1702L712 1901Q684 1929 684 1974Z"  horiz-adv-x="1760" vert-adv-y="2048"  />

      
      <glyph glyph-name="unid3" unicode="&#xd3;" d="M880 1388Q756 1388 653.50 1345Q551 1302 464 1215Q377 1128 334.50 1026Q292 924 292 800Q292 556 464 384Q636 212 880 212Q1124 212 1296 384Q1468 556 1468 800Q1468 1043 1296 1215Q1123 1388 880 1388M1680 800Q1680 469 1445 234Q1211 0 880 0Q548 0 314 234Q80 468 80 800Q80 1131 314 1365Q549 1600 880 1600Q1210 1600 1445 1365Q1563 1247 1621.50 1107Q1680 967 1680 800M1077 1901L877 1702Q849 1674 805 1674Q760 1674 730.50 1703.50Q701 1733 701 1778Q701 1821 727 1849L927 2048Q959 2079 1001 2079Q1046 2079 1075.50 2048.50Q1105 2018 1105 1974Q1105 1929 1077 1901Z"  horiz-adv-x="1760" vert-adv-y="2048"  />

      
      <glyph glyph-name="unid4" unicode="&#xd4;" d="M880 1388Q756 1388 653.50 1345Q551 1302 464 1215Q377 1128 334.50 1026Q292 924 292 800Q292 556 464 384Q636 212 880 212Q1124 212 1296 384Q1468 556 1468 800Q1468 1043 1296 1215Q1123 1388 880 1388M1680 800Q1680 469 1445 234Q1211 0 880 0Q548 0 314 234Q80 468 80 800Q80 1131 314 1365Q549 1600 880 1600Q1210 1600 1445 1365Q1563 1247 1621.50 1107Q1680 967 1680 800M1158 1913Q1208 1875 1208 1823Q1208 1778 1178.50 1748.50Q1149 1719 1104 1719Q1069 1719 1038 1741L876 1848L714 1741Q684 1719 648 1719Q603 1719 573.50 1748.50Q544 1778 544 1823Q544 1876 593 1913L822 2064Q847 2080 876 2080Q905 2080 930 2064L1158 1913Z"  horiz-adv-x="1760" vert-adv-y="2048"  />

      
      <glyph glyph-name="unid5" unicode="&#xd5;" d="M880 1388Q756 1388 653.50 1345Q551 1302 464 1215Q377 1128 334.50 1026Q292 924 292 800Q292 556 464 384Q636 212 880 212Q1124 212 1296 384Q1468 556 1468 800Q1468 1043 1296 1215Q1123 1388 880 1388M1680 800Q1680 469 1445 234Q1211 0 880 0Q548 0 314 234Q80 468 80 800Q80 1131 314 1365Q549 1600 880 1600Q1210 1600 1445 1365Q1563 1247 1621.50 1107Q1680 967 1680 800M729 1711Q691 1711 645 1722Q599 1733 558.50 1755Q518 1777 491 1808.50Q464 1840 464 1882Q465 1929 495 1957.50Q525 1986 568 1986Q604 1986 649 1953Q694 1920 733 1920Q776 1920 806 1947Q893 2029 1025 2029Q1062 2029 1108.50 2017.50Q1155 2006 1195 1984Q1235 1962 1262.50 1930Q1290 1898 1290 1858Q1290 1813 1259.50 1783.50Q1229 1754 1185 1754Q1153 1754 1105.50 1787Q1058 1820 1022 1820Q981 1820 948 1793Q858 1711 729 1711Z"  horiz-adv-x="1760" vert-adv-y="2048"  />

      
      <glyph glyph-name="unid6" unicode="&#xd6;" d="M880 1388Q756 1388 653.50 1345Q551 1302 464 1215Q377 1128 334.50 1026Q292 924 292 800Q292 556 464 384Q636 212 880 212Q1124 212 1296 384Q1468 556 1468 800Q1468 1043 1296 1215Q1123 1388 880 1388M1680 800Q1680 469 1445 234Q1211 0 880 0Q548 0 314 234Q80 468 80 800Q80 1131 314 1365Q549 1600 880 1600Q1210 1600 1445 1365Q1563 1247 1621.50 1107Q1680 967 1680 800M779 1839Q779 1788 743 1752Q707 1716 656 1716Q605 1716 569 1752Q533 1788 533 1839Q533 1890 569 1926Q605 1962 656 1962Q707 1962 743 1926Q779 1890 779 1839M1234 1839Q1234 1788 1198 1752Q1162 1716 1111 1716Q1060 1716 1024 1752Q988 1788 988 1839Q988 1890 1024 1926Q1060 1962 1111 1962Q1162 1962 1198 1926Q1234 1890 1234 1839Z"  horiz-adv-x="1760" vert-adv-y="2048"  />

      
      <glyph glyph-name="unid7" unicode="&#xd7;" d="M336 712L104 943Q76 974 76 1016Q76 1037 84 1056Q92 1075 106 1089.50Q120 1104 139 1112Q158 1120 180 1120Q224 1120 255 1089L484 860L713 1089Q744 1120 788 1120Q809 1120 828 1112Q847 1104 861.50 1089.50Q876 1075 884 1056Q892 1037 892 1016Q892 975 863 943L632 712L863 481Q892 450 892 408Q892 386 884 367Q876 348 861.50 334Q847 320 828 312Q809 304 788 304Q743 304 715 331L484 564L251 331Q223 304 180 304Q135 304 105.50 333.50Q76 363 76 408Q76 454 104 481L336 712Z"  horiz-adv-x="960" vert-adv-y="2048"  />

      
      <glyph glyph-name="unid8" unicode="&#xd8;" d="M1516 1286Q1600 1180 1640 1060Q1680 940 1680 800Q1680 469 1445 234Q1211 0 880 0Q740 0 620 40Q500 80 394 164L261 30Q229 0 186 0Q163 0 144 8Q125 16 110.50 30.50Q96 45 88 64Q80 83 80 106Q80 150 108 178L244 314Q160 420 120 540Q80 660 80 800Q80 1131 314 1365Q549 1600 880 1600Q1020 1600 1140 1560Q1260 1520 1366 1436L1499 1569Q1530 1600 1574 1600Q1596 1600 1615.50 1592Q1635 1584 1649.50 1569.50Q1664 1555 1672 1535.50Q1680 1516 1680 1494Q1680 1455 1656 1427L1516 1286M1215 1285Q1069 1388 880 1388Q756 1388 653.50 1345Q551 1302 464 1215Q377 1128 334.50 1026Q292 924 292 800Q292 611 395 466L1215 1285M546 315Q691 212 880 212Q1124 212 1296 384Q1468 556 1468 800Q1468 985 1364 1134L546 315Z"  horiz-adv-x="1760" vert-adv-y="2048"  />

      
      <glyph glyph-name="unid9" unicode="&#xd9;" d="M288 1494L288 569Q288 496 316 431Q344 366 392 317.50Q440 269 505 240.50Q570 212 644 212Q718 212 783 240Q848 268 896.50 317Q945 366 973 430.50Q1001 495 1001 569L1001 1494Q1001 1538 1032 1569Q1063 1600 1107 1600Q1151 1600 1182 1569Q1213 1538 1213 1494L1213 569Q1213 491 1192.50 419Q1172 347 1135 283.50Q1098 220 1046 168Q994 116 930.50 78.50Q867 41 794.50 20.50Q722 0 644 0Q408 0 243 167Q76 334 76 569L76 1494Q76 1538 107 1569Q138 1600 182 1600Q226 1600 257 1569Q288 1538 288 1494M364 1974Q364 2018 393.50 2048.50Q423 2079 468 2079Q510 2079 542 2048L742 1849Q768 1821 768 1778Q768 1733 738.50 1703.50Q709 1674 664 1674Q620 1674 592 1702L392 1901Q364 1929 364 1974Z"  horiz-adv-x="1280" vert-adv-y="2048"  />

      
      <glyph glyph-name="unida" unicode="&#xda;" d="M288 1494L288 569Q288 496 316 431Q344 366 392 317.50Q440 269 505 240.50Q570 212 644 212Q718 212 783 240Q848 268 896.50 317Q945 366 973 430.50Q1001 495 1001 569L1001 1494Q1001 1538 1032 1569Q1063 1600 1107 1600Q1151 1600 1182 1569Q1213 1538 1213 1494L1213 569Q1213 491 1192.50 419Q1172 347 1135 283.50Q1098 220 1046 168Q994 116 930.50 78.50Q867 41 794.50 20.50Q722 0 644 0Q408 0 243 167Q76 334 76 569L76 1494Q76 1538 107 1569Q138 1600 182 1600Q226 1600 257 1569Q288 1538 288 1494M907 1901L707 1702Q679 1674 635 1674Q590 1674 560.50 1703.50Q531 1733 531 1778Q531 1821 557 1849L757 2048Q789 2079 831 2079Q876 2079 905.50 2048.50Q935 2018 935 1974Q935 1929 907 1901Z"  horiz-adv-x="1280" vert-adv-y="2048"  />

      
      <glyph glyph-name="unidb" unicode="&#xdb;" d="M288 1494L288 569Q288 496 316 431Q344 366 392 317.50Q440 269 505 240.50Q570 212 644 212Q718 212 783 240Q848 268 896.50 317Q945 366 973 430.50Q1001 495 1001 569L1001 1494Q1001 1538 1032 1569Q1063 1600 1107 1600Q1151 1600 1182 1569Q1213 1538 1213 1494L1213 569Q1213 491 1192.50 419Q1172 347 1135 283.50Q1098 220 1046 168Q994 116 930.50 78.50Q867 41 794.50 20.50Q722 0 644 0Q408 0 243 167Q76 334 76 569L76 1494Q76 1538 107 1569Q138 1600 182 1600Q226 1600 257 1569Q288 1538 288 1494M918 1913Q968 1875 968 1823Q968 1778 938.50 1748.50Q909 1719 864 1719Q829 1719 798 1741L636 1848L474 1741Q444 1719 408 1719Q363 1719 333.50 1748.50Q304 1778 304 1823Q304 1876 353 1913L582 2064Q607 2080 636 2080Q665 2080 690 2064L918 1913Z"  horiz-adv-x="1280" vert-adv-y="2048"  />

      
      </font>
</defs>
</svg>
